<svg xmlns="http://www.w3.org/2000/svg" xmlns:xlink="http://www.w3.org/1999/xlink" width="500" zoomAndPan="magnify" viewBox="0 0 375 374.999991" height="500" preserveAspectRatio="xMidYMid meet" version="1.2"><defs><clipPath id="d95a8ca94a"><path d="M 21 21 L 330 21 L 330 340 L 21 340 Z M 21 21 "/></clipPath><clipPath id="d239ca6049"><path d="M 57.046875 0 L 368.96875 49 L 317.757812 375.003906 L 5.832031 326.003906 Z M 57.046875 0 "/></clipPath><clipPath id="73d59904d1"><path d="M 57.046875 0 L 368.96875 49 L 317.757812 375.003906 L 5.832031 326.003906 Z M 57.046875 0 "/></clipPath><clipPath id="6dbc69ebcb"><path d="M 81 145 L 270 145 L 270 351 L 81 351 Z M 81 145 "/></clipPath><clipPath id="5c7cbe067b"><path d="M 57.046875 0 L 368.96875 49 L 317.757812 375.003906 L 5.832031 326.003906 Z M 57.046875 0 "/></clipPath><clipPath id="b27ffb28ed"><path d="M 57.046875 0 L 368.96875 49 L 317.757812 375.003906 L 5.832031 326.003906 Z M 57.046875 0 "/></clipPath><clipPath id="5ccd1124eb"><path d="M 134 168 L 222 168 L 222 246 L 134 246 Z M 134 168 "/></clipPath><clipPath id="f4057fb1c7"><path d="M 57.046875 0 L 368.96875 49 L 317.757812 375.003906 L 5.832031 326.003906 Z M 57.046875 0 "/></clipPath><clipPath id="df449bf752"><path d="M 57.046875 0 L 368.96875 49 L 317.757812 375.003906 L 5.832031 326.003906 Z M 57.046875 0 "/></clipPath></defs><g id="23da2b541a"><g clip-rule="nonzero" clip-path="url(#d95a8ca94a)"><g clip-rule="nonzero" clip-path="url(#d239ca6049)"><g clip-rule="nonzero" clip-path="url(#73d59904d1)"><path style=" stroke:none;fill-rule:evenodd;fill:#92423c;fill-opacity:1;" d="M 318.921875 289.175781 C 286.851562 344.738281 196.246094 341.996094 158.484375 336.066406 C 134.570312 332.308594 41.65625 314.566406 23.117188 255.882812 C 18.933594 242.628906 24.128906 214.59375 34.648438 204.0625 C 34.648438 204.0625 32.464844 234.480469 52.058594 229.851562 C 64.757812 226.839844 66.914062 211.140625 62.542969 190.332031 C 59.019531 173.542969 46.460938 123.863281 100.128906 81.792969 C 100.128906 81.792969 82.324219 115.289062 109.070312 126.554688 C 122.46875 132.214844 136.878906 116.957031 132.71875 103.097656 C 127.6875 86.367188 119.699219 69.734375 138.746094 48.386719 C 154.742188 30.464844 170.679688 30.351562 170.679688 30.351562 C 170.679688 30.351562 145.351562 70.816406 178.078125 75.84375 C 208.535156 80.527344 210.933594 46.421875 192.632812 21.320312 C 192.632812 21.320312 245.578125 32.089844 228.179688 83.710938 C 213.761719 126.46875 222.683594 137.105469 240.417969 136.5 C 256.179688 135.945312 270.613281 116.726562 250.820312 75.742188 C 250.820312 75.742188 298.515625 83.894531 284.820312 137.070312 C 277.367188 166 283.0625 173.664062 291.226562 174.304688 C 314.128906 176.105469 314.550781 138.449219 314.550781 138.449219 C 314.550781 138.449219 345.894531 171.398438 310.652344 205.429688 C 299.960938 215.753906 290.035156 234.613281 299.710938 242.40625 C 314.261719 254.128906 323.679688 226.414062 323.679688 226.414062 C 337.550781 249.011719 324.421875 279.652344 318.921875 289.175781 Z M 318.921875 289.175781 "/></g></g></g><g clip-rule="nonzero" clip-path="url(#6dbc69ebcb)"><g clip-rule="nonzero" clip-path="url(#5c7cbe067b)"><g clip-rule="nonzero" clip-path="url(#b27ffb28ed)"><path style=" stroke:none;fill-rule:evenodd;fill:#ffc492;fill-opacity:1;" d="M 101.371094 267.648438 C 99.035156 268.527344 96.3125 268.421875 93.210938 266.542969 C 86.15625 262.269531 80.074219 250.367188 81.394531 234.65625 C 82.496094 221.578125 87.03125 213.9375 94.75 212.632812 C 101.316406 211.527344 104.824219 214.410156 107.300781 218.785156 C 108.160156 213.292969 108.824219 209.070312 108.824219 209.070312 C 114.902344 170.359375 151.792969 140.527344 190.503906 146.609375 C 229.21875 152.691406 255.183594 192.394531 249.101562 231.105469 C 249.101562 231.105469 248.4375 235.328125 247.578125 240.820312 C 251.277344 237.414062 255.496094 235.746094 261.40625 238.816406 C 268.351562 242.421875 270.851562 247.746094 267.890625 260.53125 C 264.328125 275.890625 254.367188 288.695312 246.339844 290.601562 C 242.820312 291.4375 240.195312 290.703125 238.246094 289.15625 C 237.949219 291.007812 237.664062 292.804688 237.390625 294.523438 C 235.390625 307.273438 226.671875 320.1875 216.480469 328.109375 C 206.578125 335.914062 197.964844 343.160156 190.363281 346.894531 C 178.265625 352.84375 170.257812 351.054688 158.6875 349.238281 C 147.117188 347.417969 138.941406 346.667969 129.246094 337.292969 C 123.152344 331.40625 117.175781 321.871094 110.140625 311.40625 C 102.875 300.738281 100.03125 287.148438 100.539062 273.023438 C 100.601562 271.28125 101.085938 269.503906 101.371094 267.648438 Z M 101.371094 267.648438 "/></g></g></g><g clip-rule="nonzero" clip-path="url(#5ccd1124eb)"><g clip-rule="nonzero" clip-path="url(#f4057fb1c7)"><g clip-rule="nonzero" clip-path="url(#df449bf752)"><path style=" stroke:none;fill-rule:evenodd;fill:#92423c;fill-opacity:1;" d="M 142.875 203.214844 C 142.664062 199.789062 143.109375 196.125 144.171875 192.679688 C 146.15625 186.261719 150.246094 180.609375 155.949219 178.257812 C 162.53125 175.554688 171.527344 175.351562 178.585938 175.117188 C 178.90625 175.097656 179.222656 175.109375 179.558594 175.109375 C 179.714844 174.84375 179.902344 174.582031 180.074219 174.335938 C 182.957031 170.289062 187.0625 167.742188 192.175781 168.308594 C 199.988281 169.210938 209.148438 175.023438 215.113281 182.433594 C 219.167969 187.480469 221.742188 193.253906 221.566406 198.671875 C 221.4375 203.183594 218.589844 207.726562 214.574219 210.523438 C 214.515625 210.550781 214.472656 210.582031 214.429688 210.609375 C 214.527344 211.1875 214.59375 211.726562 214.625 212.238281 C 215.195312 222.433594 208.621094 233.425781 198.546875 236.886719 C 191.625 239.265625 183.882812 238.265625 178.695312 233.988281 C 174.085938 239.015625 166.21875 243.835938 158.363281 245.324219 C 152.578125 246.410156 146.792969 245.703125 142.242188 242.15625 C 134.253906 235.933594 133.078125 224.226562 136.578125 214.109375 C 138 210.050781 140.148438 206.269531 142.875 203.214844 Z M 176.324219 231.566406 C 174.796875 229.601562 173.660156 227.191406 173.113281 224.367188 C 172.972656 223.601562 173.058594 222.5625 173.414062 221.382812 C 174.097656 219.167969 175.777344 216.347656 177.867188 214.464844 C 180.207031 212.328125 183.027344 211.410156 185.617188 212.796875 C 188.160156 214.140625 189.441406 215.738281 189.941406 217.324219 C 190.484375 219.003906 190.1875 220.773438 189.292969 222.535156 C 188.1875 224.683594 186.144531 226.847656 184.085938 228.757812 C 183.007812 229.765625 181.925781 230.703125 181.027344 231.523438 C 185.335938 234.957031 191.761719 235.640625 197.460938 233.6875 C 206.125 230.714844 211.738281 221.199219 211.242188 212.433594 C 211.25 212.398438 211.238281 212.359375 211.246094 212.304688 C 207.867188 213.660156 204.089844 213.777344 200.640625 212.019531 C 195.246094 209.300781 194.203125 201.519531 200.417969 198.902344 C 203.925781 197.40625 206.96875 198.425781 209.351562 200.652344 C 211.148438 202.3125 212.546875 204.726562 213.460938 207.136719 C 216.164062 204.949219 218.101562 201.773438 218.195312 198.558594 C 218.332031 193.878906 216.003906 188.925781 212.476562 184.5625 C 207.09375 177.855469 198.859375 172.480469 191.796875 171.679688 C 188.285156 171.273438 185.453125 172.984375 183.335938 175.609375 C 189.390625 176.996094 196.171875 181 200.460938 186.355469 C 201.039062 187.082031 200.925781 188.152344 200.199219 188.726562 C 199.472656 189.304688 198.40625 189.191406 197.824219 188.464844 C 193.710938 183.320312 187.027344 179.527344 181.398438 178.664062 C 178.992188 183.363281 178.199219 189.371094 179.34375 193.632812 C 179.578125 194.539062 179.039062 195.453125 178.140625 195.695312 C 177.242188 195.933594 176.3125 195.40625 176.082031 194.5 C 174.867188 189.972656 175.507812 183.742188 177.75 178.523438 C 171.222656 178.734375 163.179688 178.9375 157.234375 181.378906 C 152.414062 183.363281 149.082031 188.246094 147.40625 193.679688 C 146.757812 195.769531 146.359375 197.941406 146.25 200.082031 C 149.722656 197.398438 153.828125 195.8125 158.296875 195.953125 C 165.859375 196.179688 171.726562 203.523438 169.695312 213 C 168.703125 217.632812 164.3125 221.277344 160.183594 221.464844 C 156.46875 221.644531 153.929688 221.261719 151.945312 220.296875 C 148.992188 218.855469 147.1875 216.03125 144.828125 211.160156 C 144.320312 210.101562 143.902344 208.945312 143.589844 207.71875 C 141.996094 209.992188 140.714844 212.546875 139.769531 215.226562 C 136.753906 223.953125 137.421875 234.109375 144.308594 239.488281 C 148.113281 242.425781 152.921875 242.910156 157.726562 241.996094 C 164.941406 240.644531 172.175781 236.175781 176.324219 231.566406 Z M 178.714844 229.09375 C 180.660156 227.328125 183.335938 225.066406 185.164062 222.722656 C 186.296875 221.230469 187.179688 219.773438 186.710938 218.339844 C 186.429688 217.40625 185.546875 216.578125 184.027344 215.777344 C 182.699219 215.058594 181.335938 215.878906 180.136719 216.960938 C 178.734375 218.246094 177.550781 220.054688 176.910156 221.644531 C 176.574219 222.480469 176.34375 223.222656 176.433594 223.726562 C 176.835938 225.804688 177.640625 227.597656 178.714844 229.09375 Z M 146.375 204.402344 C 146.617188 206.308594 147.105469 208.109375 147.863281 209.695312 C 149.789062 213.644531 151.035156 216.089844 153.4375 217.246094 C 155.015625 218.023438 157.0625 218.234375 160.019531 218.101562 C 162.832031 217.960938 165.71875 215.421875 166.402344 212.28125 C 167.90625 205.207031 163.863281 199.492188 158.195312 199.328125 C 153.652344 199.195312 149.613281 201.191406 146.375 204.402344 Z M 210.539062 208.945312 C 209.996094 207.375 209.207031 205.746094 208.183594 204.386719 C 206.601562 202.304688 204.429688 200.875 201.742188 202.015625 C 198.417969 203.414062 199.28125 207.558594 202.160156 209.011719 C 204.898438 210.402344 207.898438 210.148438 210.539062 208.945312 Z M 210.539062 208.945312 "/></g></g></g></g></svg>