<svg xmlns="http://www.w3.org/2000/svg" xmlns:xlink="http://www.w3.org/1999/xlink" width="500" zoomAndPan="magnify" viewBox="0 0 375 374.999991" height="500" preserveAspectRatio="xMidYMid meet" version="1.0"><path fill="#7b2721" d="M 65.707031 142.71875 C 65.707031 142.71875 36.902344 145.234375 27.316406 197.445312 C 17.730469 249.65625 32.210938 315.957031 32.210938 315.957031 L 182.601562 285.730469 C 182.601562 285.730469 183.425781 246.980469 183.402344 229.632812 C 183.378906 212.28125 181.324219 202.636719 184.609375 182.007812 C 188.488281 157.675781 188.632812 123.550781 153.839844 131.753906 C 119.046875 139.953125 65.707031 142.71875 65.707031 142.71875 Z M 65.707031 142.71875 " fill-opacity="1" fill-rule="evenodd"/><path fill="#000000" d="M 35.261719 212.632812 C 35.261719 212.632812 39.890625 262.472656 47.894531 278.847656 C 57.175781 297.839844 69.804688 302.292969 69.804688 302.292969 C 69.804688 302.292969 63.453125 309.796875 48.253906 288.6875 C 36.09375 271.804688 31.796875 206.394531 35.261719 212.632812 Z M 35.261719 212.632812 " fill-opacity="1" fill-rule="evenodd"/><path fill="#000000" d="M 116.269531 202.285156 C 116.269531 202.285156 119.671875 203.25 118.171875 208.675781 C 116.675781 214.101562 110.8125 254.914062 106.320312 268.585938 C 101.824219 282.257812 95.398438 293.765625 95.398438 293.765625 C 95.398438 293.765625 99.714844 294.914062 102.558594 292.449219 C 105.398438 289.988281 113.9375 243.113281 117.488281 221.476562 C 120.691406 201.972656 118.855469 202.476562 116.269531 202.285156 Z M 116.269531 202.285156 " fill-opacity="1" fill-rule="evenodd"/><path fill="#000000" d="M 166.386719 179.894531 C 166.386719 179.894531 169.882812 195.605469 171.359375 207.757812 C 172.835938 219.914062 166.34375 244.167969 163.359375 263.082031 C 160.375 281.992188 165.625 272.242188 166.824219 267.140625 C 168.019531 262.042969 171.597656 240.363281 172.90625 229.257812 C 174.214844 218.152344 176.074219 207.683594 166.386719 179.894531 Z M 166.386719 179.894531 " fill-opacity="1" fill-rule="evenodd"/><path fill="#000000" d="M 116.953125 197.628906 L 129.097656 187.476562 C 129.621094 187.039062 129.691406 186.257812 129.25 185.734375 C 128.8125 185.207031 128.03125 185.136719 127.507812 185.574219 L 115.363281 195.726562 C 114.839844 196.164062 114.769531 196.945312 115.210938 197.472656 C 115.648438 197.996094 116.429688 198.066406 116.953125 197.628906 Z M 116.953125 197.628906 " fill-opacity="1" fill-rule="evenodd"/><path fill="#000000" d="M 150.636719 188.957031 L 150.609375 188.945312 C 149.980469 188.78125 149.15625 188.484375 148.246094 188.117188 C 144.082031 186.433594 138.0625 183.269531 138.0625 183.269531 C 137.460938 182.953125 136.707031 183.183594 136.390625 183.792969 C 136.074219 184.398438 136.304688 185.148438 136.914062 185.464844 C 136.914062 185.464844 144.984375 189.699219 149.050781 191.0625 C 149.882812 191.34375 150.578125 191.503906 151.046875 191.53125 C 151.441406 191.558594 151.753906 191.496094 151.980469 191.410156 C 152.261719 191.296875 152.609375 191.050781 152.835938 190.523438 C 153.070312 189.976562 153.242188 188.609375 153.285156 186.703125 C 153.460938 178.292969 151.832031 158.097656 151.832031 158.097656 C 151.78125 157.414062 151.183594 156.90625 150.5 156.960938 C 149.816406 157.015625 149.308594 157.613281 149.367188 158.296875 C 149.367188 158.296875 150.984375 178.316406 150.808594 186.652344 C 150.789062 187.523438 150.699219 188.398438 150.636719 188.957031 Z M 150.636719 188.957031 " fill-opacity="1" fill-rule="evenodd"/><path fill="#000000" d="M 135.621094 200.953125 C 135.617188 201.277344 135.558594 201.589844 135.433594 201.890625 C 135.308594 202.191406 135.132812 202.457031 134.902344 202.683594 C 134.671875 202.914062 134.410156 203.089844 134.109375 203.214844 C 133.808594 203.339844 133.496094 203.402344 133.171875 203.402344 C 132.847656 203.402344 132.535156 203.339844 132.234375 203.214844 C 131.9375 203.089844 131.671875 202.914062 131.441406 202.683594 C 131.210938 202.457031 131.035156 202.191406 130.910156 201.890625 C 130.789062 201.589844 130.726562 201.277344 130.726562 200.953125 C 130.726562 200.628906 130.789062 200.316406 130.910156 200.019531 C 131.035156 199.71875 131.210938 199.453125 131.441406 199.222656 C 131.671875 198.996094 131.9375 198.816406 132.234375 198.695312 C 132.535156 198.570312 132.847656 198.507812 133.171875 198.507812 C 133.496094 198.507812 133.808594 198.570312 134.109375 198.695312 C 134.410156 198.816406 134.671875 198.996094 134.902344 199.222656 C 135.132812 199.453125 135.308594 199.71875 135.433594 200.019531 C 135.558594 200.316406 135.617188 200.628906 135.621094 200.953125 Z M 135.621094 200.953125 " fill-opacity="1" fill-rule="nonzero"/><path fill="#000000" d="M 134.871094 220.621094 C 134.871094 220.945312 134.8125 221.257812 134.6875 221.558594 C 134.5625 221.855469 134.386719 222.121094 134.15625 222.351562 C 133.925781 222.582031 133.664062 222.757812 133.363281 222.882812 C 133.0625 223.003906 132.75 223.066406 132.425781 223.066406 C 132.101562 223.066406 131.789062 223.003906 131.488281 222.882812 C 131.191406 222.757812 130.925781 222.582031 130.695312 222.351562 C 130.464844 222.121094 130.289062 221.855469 130.164062 221.558594 C 130.042969 221.257812 129.980469 220.945312 129.980469 220.621094 C 129.980469 220.296875 130.042969 219.984375 130.164062 219.683594 C 130.289062 219.382812 130.464844 219.121094 130.695312 218.890625 C 130.925781 218.660156 131.191406 218.484375 131.488281 218.359375 C 131.789062 218.234375 132.101562 218.175781 132.425781 218.175781 C 132.75 218.175781 133.0625 218.234375 133.363281 218.359375 C 133.664062 218.484375 133.925781 218.660156 134.15625 218.890625 C 134.386719 219.121094 134.5625 219.382812 134.6875 219.683594 C 134.8125 219.984375 134.871094 220.296875 134.871094 220.621094 Z M 134.871094 220.621094 " fill-opacity="1" fill-rule="nonzero"/><path fill="#000000" d="M 132.625 262.84375 C 132.625 263.167969 132.5625 263.480469 132.4375 263.78125 C 132.316406 264.078125 132.136719 264.34375 131.910156 264.574219 C 131.679688 264.800781 131.414062 264.980469 131.113281 265.101562 C 130.816406 265.226562 130.503906 265.289062 130.179688 265.289062 C 129.855469 265.289062 129.542969 265.226562 129.242188 265.101562 C 128.941406 264.980469 128.679688 264.800781 128.449219 264.574219 C 128.21875 264.34375 128.042969 264.078125 127.917969 263.78125 C 127.792969 263.480469 127.730469 263.167969 127.730469 262.84375 C 127.730469 262.519531 127.792969 262.207031 127.917969 261.90625 C 128.042969 261.605469 128.21875 261.34375 128.449219 261.113281 C 128.679688 260.882812 128.941406 260.707031 129.242188 260.582031 C 129.542969 260.457031 129.855469 260.394531 130.179688 260.394531 C 130.503906 260.394531 130.816406 260.457031 131.113281 260.582031 C 131.414062 260.707031 131.679688 260.882812 131.910156 261.113281 C 132.136719 261.34375 132.316406 261.605469 132.4375 261.90625 C 132.5625 262.207031 132.625 262.519531 132.625 262.84375 Z M 132.625 262.84375 " fill-opacity="1" fill-rule="nonzero"/><path fill="#000000" d="M 132.808594 241.851562 C 132.808594 242.175781 132.746094 242.488281 132.625 242.785156 C 132.5 243.085938 132.324219 243.351562 132.09375 243.582031 C 131.863281 243.808594 131.597656 243.988281 131.300781 244.109375 C 131 244.234375 130.6875 244.296875 130.363281 244.296875 C 130.039062 244.296875 129.726562 244.234375 129.425781 244.109375 C 129.125 243.988281 128.863281 243.808594 128.632812 243.582031 C 128.402344 243.351562 128.226562 243.085938 128.101562 242.785156 C 127.976562 242.488281 127.917969 242.175781 127.917969 241.851562 C 127.917969 241.527344 127.976562 241.214844 128.101562 240.914062 C 128.226562 240.613281 128.402344 240.351562 128.632812 240.121094 C 128.863281 239.890625 129.125 239.714844 129.425781 239.589844 C 129.726562 239.464844 130.039062 239.402344 130.363281 239.402344 C 130.6875 239.402344 131 239.464844 131.300781 239.589844 C 131.597656 239.714844 131.863281 239.890625 132.09375 240.121094 C 132.324219 240.351562 132.5 240.613281 132.625 240.914062 C 132.746094 241.214844 132.808594 241.527344 132.808594 241.851562 Z M 132.808594 241.851562 " fill-opacity="1" fill-rule="nonzero"/><path fill="#000000" d="M 81.597656 198.988281 C 81.613281 199 81.625 199.019531 81.640625 199.035156 C 81.640625 199.035156 90.363281 208.582031 102.296875 213.824219 C 102.921875 214.101562 103.652344 213.816406 103.929688 213.1875 C 104.203125 212.5625 103.921875 211.832031 103.292969 211.554688 C 91.839844 206.527344 83.46875 197.363281 83.46875 197.363281 C 83.234375 197.109375 82.917969 196.96875 82.597656 196.957031 C 84.113281 193.898438 85.691406 190.816406 87.316406 187.75 C 87.316406 187.75 74.835938 208.765625 65.847656 223.664062 C 56.863281 238.558594 55.261719 254.738281 55.46875 260.066406 C 55.585938 263.074219 65.320312 232.234375 81.597656 198.988281 Z M 81.597656 198.988281 " fill-opacity="1" fill-rule="evenodd"/><path fill="#92423c" d="M 22.054688 312.148438 C 30.855469 306.269531 182.308594 261.800781 182.308594 261.800781 L 316.746094 265.621094 C 316.746094 265.621094 339.46875 282.96875 291.597656 317.027344 C 238.023438 355.152344 161.859375 354.332031 115.179688 351.816406 C 52.617188 348.441406 0.445312 326.59375 22.054688 312.148438 Z M 22.054688 312.148438 " fill-opacity="1" fill-rule="evenodd"/><path fill="#f8e0cc" d="M 135.730469 277.0625 L 258.589844 235.40625 L 224.671875 305.203125 L 137.210938 284.6875 Z M 135.730469 277.0625 " fill-opacity="1" fill-rule="evenodd"/><path fill="#efb69e" d="M 135.730469 277.0625 C 135.730469 277.0625 131.925781 282.292969 137.210938 285.621094 C 142.5 288.949219 217.609375 307.519531 222.230469 308.234375 C 226.851562 308.953125 327.1875 269.652344 329.652344 264.632812 C 354.984375 213.011719 374.683594 166.089844 368.832031 162.53125 C 365.84375 160.714844 272.015625 198.949219 264.273438 201.9375 C 260.066406 203.566406 221.867188 298.324219 221.867188 298.324219 Z M 135.730469 277.0625 " fill-opacity="1" fill-rule="evenodd"/><path fill="#92423c" d="M 267.824219 207.316406 C 267.824219 207.316406 354.519531 171.277344 367.925781 167.367188 C 368.582031 167.171875 368.960938 166.484375 368.765625 165.828125 C 368.574219 165.171875 367.886719 164.792969 367.230469 164.988281 C 353.792969 168.910156 266.875 205.027344 266.875 205.027344 C 266.242188 205.289062 265.941406 206.015625 266.207031 206.648438 C 266.46875 207.277344 267.195312 207.578125 267.824219 207.316406 Z M 267.824219 207.316406 " fill-opacity="1" fill-rule="evenodd"/><path fill="#92423c" d="M 306.882812 224.597656 C 310.570312 221.855469 313.53125 223.367188 315.289062 224.335938 C 321.152344 227.578125 317.738281 234.125 315.804688 237.582031 C 313.542969 241.628906 309.164062 244.777344 304.75 245.425781 C 301.050781 245.96875 296.019531 244.824219 294.90625 242.753906 C 293.449219 240.027344 294.917969 237.113281 297.105469 235.433594 C 298.265625 234.542969 303.011719 233.148438 303.441406 231.828125 C 303.984375 230.179688 304.226562 226.578125 306.882812 224.597656 Z M 306.882812 224.597656 " fill-opacity="1" fill-rule="evenodd"/><path fill="#92423c" d="M 178.859375 263.257812 C 178.859375 263.257812 189.8125 258.28125 202.554688 261.222656 L 196.601562 249.121094 C 196.601562 249.121094 183.808594 248.847656 182.421875 249.140625 C 181.039062 249.433594 178.859375 263.257812 178.859375 263.257812 Z M 178.859375 263.257812 " fill-opacity="1" fill-rule="evenodd"/><path fill="#efb69e" d="M 184.132812 243.707031 C 181.269531 247.21875 174.976562 244.554688 173.261719 253.039062 C 171.789062 260.308594 170.3125 266.296875 170.582031 269.375 C 170.851562 272.453125 177.949219 272.125 180.140625 266.445312 C 182.332031 260.765625 182.203125 255.9375 188.117188 254.042969 C 190.53125 253.265625 194.410156 252.699219 198.921875 259.554688 C 203.859375 267.046875 206.042969 270.6875 209.484375 269.476562 C 212.925781 268.269531 212.71875 264.378906 212.71875 264.378906 C 212.71875 264.378906 218.316406 268.421875 220.046875 261.976562 C 220.046875 261.976562 225.808594 264.304688 225.257812 258.191406 C 225.257812 258.191406 230.261719 259.824219 229.308594 254.714844 C 228.355469 249.605469 226.558594 230.777344 218.824219 239.082031 C 218.824219 239.082031 215.289062 232.6875 209.769531 239.316406 C 209.769531 239.316406 206.222656 232.191406 199.734375 237.835938 C 199.734375 237.835938 194.207031 231.34375 184.132812 243.707031 Z M 184.132812 243.707031 " fill-opacity="1" fill-rule="evenodd"/><path fill="#92423c" d="M 213.578125 263.050781 L 201.746094 239.488281 C 201.4375 238.875 200.691406 238.628906 200.082031 238.933594 C 199.46875 239.242188 199.222656 239.988281 199.527344 240.597656 L 211.363281 264.164062 C 211.671875 264.773438 212.414062 265.019531 213.027344 264.714844 C 213.636719 264.40625 213.882812 263.660156 213.578125 263.050781 Z M 213.578125 263.050781 " fill-opacity="1" fill-rule="evenodd"/><path fill="#92423c" d="M 209.164062 241.503906 L 218.964844 262.148438 C 219.253906 262.769531 219.996094 263.03125 220.613281 262.738281 C 221.230469 262.445312 221.492188 261.707031 221.199219 261.089844 L 211.402344 240.441406 C 211.113281 239.824219 210.371094 239.5625 209.753906 239.851562 C 209.136719 240.148438 208.875 240.882812 209.164062 241.503906 Z M 209.164062 241.503906 " fill-opacity="1" fill-rule="evenodd"/><path fill="#92423c" d="M 226.644531 257.121094 L 220.761719 240.570312 C 220.535156 239.925781 219.824219 239.589844 219.179688 239.816406 C 218.535156 240.046875 218.195312 240.753906 218.425781 241.398438 L 224.308594 257.949219 C 224.539062 258.59375 225.246094 258.929688 225.890625 258.703125 C 226.535156 258.472656 226.871094 257.765625 226.644531 257.121094 Z M 226.644531 257.121094 " fill-opacity="1" fill-rule="evenodd"/><path fill="#000000" d="M 134.550781 33.738281 C 134.550781 33.738281 103.792969 19.601562 76.839844 48.429688 C 59.597656 66.875 67.375 86.382812 51.257812 103.402344 C 43.097656 112.023438 32.101562 104.796875 32.660156 117.917969 C 33.421875 135.917969 45.550781 137.265625 50.851562 138.546875 C 50.851562 138.546875 51.261719 166.445312 85.273438 147.441406 L 159.472656 130.164062 C 159.472656 130.164062 174.941406 142.941406 183.71875 125.28125 C 183.71875 125.28125 194.789062 124.039062 195.960938 111.117188 C 196.65625 103.488281 187.449219 96.402344 182.070312 87.222656 C 172.730469 71.300781 176.035156 34.335938 134.550781 33.738281 Z M 134.550781 33.738281 " fill-opacity="1" fill-rule="evenodd"/><path fill="#efb69e" d="M 89.054688 187.289062 C 89.054688 187.289062 97.144531 198.839844 113.902344 203.6875 C 113.902344 203.6875 118.71875 183.832031 121.347656 176.082031 C 121.347656 176.082031 128.460938 182.769531 131.667969 182.441406 C 134.875 182.113281 140.109375 161.160156 141.605469 153.75 C 141.605469 153.75 157.296875 155.679688 164.234375 127.515625 C 171.171875 99.351562 164.800781 72.167969 159.867188 65.03125 L 132.527344 54.378906 C 132.527344 54.378906 130.15625 71.035156 117.71875 80.5625 C 105.277344 90.089844 98.628906 100.234375 98.628906 100.234375 L 98.226562 114.007812 C 98.226562 114.007812 94.992188 107.464844 91.945312 113.949219 C 91.945312 113.949219 92.042969 103.128906 88.570312 102.921875 C 85.199219 102.714844 85.132812 107.386719 85.132812 107.386719 C 85.132812 107.386719 84.5 102.425781 80.890625 103.894531 C 78.347656 104.925781 76.636719 113.890625 76.636719 113.890625 C 76.636719 113.890625 74.582031 112.734375 72.667969 116.796875 C 70.753906 120.859375 68.859375 132.976562 71.621094 137.902344 C 74.378906 142.828125 83.246094 151.988281 89.304688 159.039062 C 95.363281 166.085938 96.757812 168.1875 95.9375 172.066406 C 95.113281 175.945312 89.054688 187.289062 89.054688 187.289062 Z M 89.054688 187.289062 " fill-opacity="1" fill-rule="evenodd"/><path fill="#92423c" d="M 75.789062 115.140625 C 75.789062 115.140625 75.101562 127.574219 75.230469 130.804688 C 75.292969 132.289062 76.054688 133.945312 77.003906 135.375 C 78.304688 137.339844 79.898438 138.882812 79.898438 138.882812 C 80.390625 139.359375 81.175781 139.347656 81.652344 138.859375 C 82.125 138.367188 82.113281 137.582031 81.621094 137.105469 C 81.621094 137.105469 80.21875 135.746094 79.070312 134.007812 C 78.378906 132.960938 77.75 131.785156 77.707031 130.707031 C 77.578125 127.523438 78.261719 115.28125 78.261719 115.28125 C 78.300781 114.597656 77.777344 114.011719 77.097656 113.972656 C 76.414062 113.9375 75.828125 114.460938 75.789062 115.140625 Z M 75.789062 115.140625 " fill-opacity="1" fill-rule="evenodd"/><path fill="#92423c" d="M 83.703125 109.164062 C 83.703125 109.164062 83.445312 124 84.234375 128.242188 C 85.0625 132.710938 89.714844 137.726562 89.714844 137.726562 C 90.1875 138.226562 90.972656 138.25 91.46875 137.78125 C 91.96875 137.316406 91.992188 136.53125 91.523438 136.03125 C 91.523438 136.03125 87.394531 131.691406 86.667969 127.789062 C 85.902344 123.660156 86.179688 109.207031 86.179688 109.207031 C 86.191406 108.527344 85.644531 107.960938 84.960938 107.949219 C 84.277344 107.9375 83.714844 108.480469 83.703125 109.164062 Z M 83.703125 109.164062 " fill-opacity="1" fill-rule="evenodd"/><path fill="#92423c" d="M 91.125 115.394531 C 91.125 115.394531 91.417969 120.886719 92.054688 124.933594 C 92.359375 126.855469 92.777344 128.472656 93.222656 129.203125 C 94.570312 131.414062 98.769531 136.796875 98.769531 136.796875 C 99.191406 137.335938 99.96875 137.433594 100.507812 137.011719 C 101.046875 136.59375 101.144531 135.8125 100.722656 135.273438 C 100.722656 135.273438 96.644531 130.054688 95.339844 127.914062 C 94.988281 127.339844 94.742188 126.054688 94.503906 124.550781 C 93.882812 120.605469 93.597656 115.261719 93.597656 115.261719 C 93.558594 114.582031 92.976562 114.054688 92.292969 114.089844 C 91.613281 114.128906 91.085938 114.710938 91.125 115.394531 Z M 91.125 115.394531 " fill-opacity="1" fill-rule="evenodd"/><path fill="#92423c" d="M 97.574219 115.355469 C 97.574219 115.355469 98.402344 123.585938 101.421875 128.78125 C 105.515625 135.824219 112.683594 141.28125 117.601562 145.320312 C 119.851562 147.171875 122.484375 149.875 123.625 154.207031 C 124.796875 158.65625 124.390625 164.765625 120.632812 173.320312 C 120.359375 173.949219 120.644531 174.679688 121.269531 174.953125 C 121.894531 175.230469 122.628906 174.945312 122.902344 174.316406 C 126.972656 165.039062 127.292969 158.402344 126.019531 153.574219 C 124.71875 148.628906 121.746094 145.523438 119.171875 143.40625 C 114.441406 139.519531 107.5 134.3125 103.566406 127.535156 C 100.773438 122.734375 100.042969 115.109375 100.042969 115.109375 C 99.972656 114.433594 99.367188 113.933594 98.6875 113.996094 C 98.003906 114.066406 97.507812 114.671875 97.574219 115.355469 Z M 97.574219 115.355469 " fill-opacity="1" fill-rule="evenodd"/><path fill="#92423c" d="M 140.492188 158.777344 C 136.496094 157.777344 131.164062 155.484375 126.921875 150.222656 C 126.921875 150.222656 132.820312 152.757812 141.503906 153.738281 L 141.605469 153.75 C 141.34375 155.0625 140.957031 156.804688 140.492188 158.777344 Z M 140.492188 158.777344 " fill-opacity="1" fill-rule="evenodd"/><path fill="#92423c" d="M 142.445312 118.941406 C 142.515625 118.914062 143.632812 118.449219 144.382812 117.824219 C 144.742188 117.527344 145.125 117.207031 145.09375 116.761719 C 145.046875 116.136719 144.691406 115.503906 144.316406 114.957031 C 143.726562 114.085938 142.898438 113.296875 142.898438 113.296875 C 142.898438 113.296875 142.886719 113.285156 142.886719 113.285156 C 142.378906 112.824219 142.339844 112.042969 142.800781 111.535156 C 143.136719 111.167969 144.085938 111.015625 144.589844 111.484375 C 144.753906 111.640625 145.625 112.472656 146.367188 113.5625 C 146.980469 114.46875 147.484375 115.542969 147.566406 116.574219 C 147.65625 117.792969 146.960938 118.898438 145.972656 119.726562 C 144.925781 120.597656 143.609375 121.148438 143.355469 121.25 C 143.335938 121.253906 143.316406 121.265625 143.296875 121.269531 C 143.226562 121.296875 143.15625 121.316406 143.082031 121.328125 L 142.863281 121.351562 C 142.863281 121.351562 142.855469 121.335938 142.863281 121.351562 C 142.613281 121.351562 142.367188 121.273438 142.164062 121.136719 C 141.960938 120.996094 141.796875 120.796875 141.703125 120.546875 C 141.617188 120.320312 141.617188 120.09375 141.65625 119.96875 C 141.65625 119.96875 141.667969 119.9375 141.671875 119.929688 C 141.765625 119.707031 141.800781 119.351562 142.441406 118.945312 Z M 142.445312 118.941406 " fill-opacity="1" fill-rule="evenodd"/><path fill="#92423c" d="M 136.015625 134.070312 C 136.015625 134.070312 141.851562 130.441406 149.8125 130.636719 C 150.496094 130.65625 151.0625 130.113281 151.082031 129.429688 C 151.097656 128.746094 150.558594 128.179688 149.875 128.160156 C 141.113281 127.945312 134.699219 131.96875 134.699219 131.96875 C 134.121094 132.332031 133.945312 133.097656 134.308594 133.675781 C 134.671875 134.253906 135.433594 134.433594 136.015625 134.070312 Z M 136.015625 134.070312 " fill-opacity="1" fill-rule="evenodd"/><path fill="#000000" d="M 114.878906 94.617188 C 114.878906 94.617188 122.765625 94.757812 128.1875 88.460938 C 128.632812 87.945312 128.574219 87.160156 128.058594 86.714844 C 127.539062 86.269531 126.753906 86.328125 126.308594 86.84375 C 121.667969 92.242188 114.917969 92.140625 114.917969 92.140625 C 114.234375 92.128906 113.671875 92.675781 113.660156 93.359375 C 113.648438 94.042969 114.195312 94.605469 114.878906 94.617188 Z M 114.878906 94.617188 " fill-opacity="1" fill-rule="evenodd"/><path fill="#000000" d="M 151.015625 86.433594 C 151.015625 86.433594 157.332031 89.710938 162.71875 88.199219 C 163.378906 88.015625 163.761719 87.328125 163.578125 86.671875 C 163.390625 86.011719 162.707031 85.628906 162.050781 85.816406 C 157.496094 87.09375 152.171875 84.242188 152.171875 84.242188 C 151.566406 83.921875 150.8125 84.15625 150.496094 84.757812 C 150.179688 85.367188 150.410156 86.113281 151.015625 86.433594 Z M 151.015625 86.433594 " fill-opacity="1" fill-rule="evenodd"/><path fill="#000000" d="M 127.59375 102.492188 C 127.59375 102.875 127.570312 103.253906 127.527344 103.628906 C 127.480469 104.003906 127.414062 104.367188 127.324219 104.71875 C 127.234375 105.070312 127.125 105.40625 126.992188 105.726562 C 126.863281 106.042969 126.714844 106.335938 126.550781 106.605469 C 126.382812 106.875 126.203125 107.117188 126.007812 107.328125 C 125.816406 107.542969 125.609375 107.722656 125.390625 107.867188 C 125.175781 108.015625 124.953125 108.125 124.722656 108.199219 C 124.492188 108.273438 124.261719 108.308594 124.027344 108.308594 C 123.792969 108.308594 123.5625 108.273438 123.332031 108.199219 C 123.101562 108.125 122.878906 108.015625 122.660156 107.867188 C 122.445312 107.722656 122.238281 107.542969 122.046875 107.328125 C 121.851562 107.117188 121.671875 106.875 121.503906 106.605469 C 121.339844 106.335938 121.191406 106.042969 121.0625 105.726562 C 120.929688 105.40625 120.820312 105.070312 120.730469 104.71875 C 120.640625 104.367188 120.574219 104.003906 120.527344 103.628906 C 120.484375 103.253906 120.460938 102.875 120.460938 102.492188 C 120.460938 102.109375 120.484375 101.730469 120.527344 101.355469 C 120.574219 100.984375 120.640625 100.617188 120.730469 100.265625 C 120.820312 99.914062 120.929688 99.578125 121.0625 99.261719 C 121.191406 98.941406 121.339844 98.648438 121.503906 98.378906 C 121.671875 98.109375 121.851562 97.867188 122.046875 97.65625 C 122.238281 97.441406 122.445312 97.261719 122.660156 97.117188 C 122.878906 96.972656 123.101562 96.859375 123.332031 96.785156 C 123.5625 96.710938 123.792969 96.675781 124.027344 96.675781 C 124.261719 96.675781 124.492188 96.710938 124.722656 96.785156 C 124.953125 96.859375 125.175781 96.972656 125.390625 97.117188 C 125.609375 97.261719 125.816406 97.441406 126.007812 97.65625 C 126.203125 97.867188 126.382812 98.109375 126.550781 98.378906 C 126.714844 98.648438 126.863281 98.941406 126.992188 99.261719 C 127.125 99.578125 127.234375 99.914062 127.324219 100.265625 C 127.414062 100.617188 127.480469 100.984375 127.527344 101.355469 C 127.570312 101.730469 127.59375 102.109375 127.59375 102.492188 Z M 127.59375 102.492188 " fill-opacity="1" fill-rule="nonzero"/><path fill="#000000" d="M 160.398438 98.988281 C 160.398438 99.371094 160.375 99.746094 160.332031 100.121094 C 160.285156 100.496094 160.21875 100.859375 160.128906 101.214844 C 160.039062 101.566406 159.925781 101.902344 159.796875 102.21875 C 159.667969 102.539062 159.519531 102.832031 159.355469 103.101562 C 159.1875 103.371094 159.007812 103.613281 158.8125 103.824219 C 158.617188 104.035156 158.414062 104.214844 158.195312 104.363281 C 157.980469 104.507812 157.757812 104.617188 157.527344 104.695312 C 157.296875 104.769531 157.066406 104.804688 156.832031 104.804688 C 156.597656 104.804688 156.363281 104.769531 156.136719 104.695312 C 155.90625 104.617188 155.683594 104.507812 155.464844 104.363281 C 155.25 104.214844 155.042969 104.035156 154.847656 103.824219 C 154.65625 103.613281 154.472656 103.371094 154.308594 103.101562 C 154.144531 102.832031 153.996094 102.539062 153.863281 102.21875 C 153.734375 101.902344 153.625 101.566406 153.535156 101.214844 C 153.445312 100.859375 153.378906 100.496094 153.332031 100.121094 C 153.285156 99.746094 153.265625 99.371094 153.265625 98.988281 C 153.265625 98.605469 153.285156 98.226562 153.332031 97.851562 C 153.378906 97.476562 153.445312 97.113281 153.535156 96.761719 C 153.625 96.40625 153.734375 96.074219 153.863281 95.753906 C 153.996094 95.4375 154.144531 95.144531 154.308594 94.875 C 154.472656 94.601562 154.65625 94.363281 154.847656 94.148438 C 155.042969 93.9375 155.25 93.757812 155.464844 93.613281 C 155.683594 93.464844 155.90625 93.355469 156.136719 93.28125 C 156.363281 93.207031 156.597656 93.167969 156.832031 93.167969 C 157.066406 93.167969 157.296875 93.207031 157.527344 93.28125 C 157.757812 93.355469 157.980469 93.464844 158.195312 93.613281 C 158.414062 93.757812 158.617188 93.9375 158.8125 94.148438 C 159.007812 94.363281 159.1875 94.601562 159.355469 94.875 C 159.519531 95.144531 159.667969 95.4375 159.796875 95.753906 C 159.925781 96.074219 160.039062 96.40625 160.128906 96.761719 C 160.214844 97.113281 160.285156 97.476562 160.332031 97.851562 C 160.375 98.226562 160.398438 98.605469 160.398438 98.988281 Z M 160.398438 98.988281 " fill-opacity="1" fill-rule="nonzero"/><path fill="#f8e0cc" d="M 211.417969 126.484375 C 211.417969 126.484375 218.128906 129.898438 224.585938 130.570312 C 224.585938 130.570312 228.660156 116.410156 240.109375 118.949219 C 252.925781 121.785156 246.664062 131.832031 246.664062 131.832031 C 246.664062 131.832031 257.488281 130.589844 258.75 141.335938 C 260.050781 152.417969 245.84375 152.765625 245.84375 152.765625 C 245.84375 152.765625 248.59375 166.449219 233.449219 167.953125 C 222.738281 169.011719 215.109375 158.648438 220.917969 148.03125 C 220.917969 148.03125 211.351562 143.738281 206.175781 138.566406 C 206.175781 138.566406 215.511719 134.980469 211.417969 126.484375 Z M 211.417969 126.484375 " fill-opacity="1" fill-rule="evenodd"/></svg>