<svg xmlns="http://www.w3.org/2000/svg" xmlns:xlink="http://www.w3.org/1999/xlink" width="500" zoomAndPan="magnify" viewBox="0 0 375 374.999991" height="500" preserveAspectRatio="xMidYMid meet" version="1.0"><defs><g/><clipPath id="6dc6406e9f"><path d="M 6.996094 6.996094 L 369.761719 6.996094 L 369.761719 369.761719 L 6.996094 369.761719 Z M 6.996094 6.996094 " clip-rule="nonzero"/></clipPath><clipPath id="9d3d14f471"><path d="M 188.378906 6.996094 C 88.203125 6.996094 6.996094 88.203125 6.996094 188.378906 C 6.996094 288.554688 88.203125 369.761719 188.378906 369.761719 C 288.554688 369.761719 369.761719 288.554688 369.761719 188.378906 C 369.761719 88.203125 288.554688 6.996094 188.378906 6.996094 Z M 188.378906 6.996094 " clip-rule="nonzero"/></clipPath><clipPath id="a28482834a"><path d="M 86.878906 94.042969 L 183.808594 94.042969 L 183.808594 299.265625 L 86.878906 299.265625 Z M 86.878906 94.042969 " clip-rule="nonzero"/></clipPath><clipPath id="fded73d098"><path d="M 193 94.042969 L 289.894531 94.042969 L 289.894531 299.265625 L 193 299.265625 Z M 193 94.042969 " clip-rule="nonzero"/></clipPath></defs><g clip-path="url(#6dc6406e9f)"><g clip-path="url(#9d3d14f471)"><path fill="#7b2721" d="M 6.996094 6.996094 L 369.761719 6.996094 L 369.761719 369.761719 L 6.996094 369.761719 Z M 6.996094 6.996094 " fill-opacity="1" fill-rule="nonzero"/></g></g><g clip-path="url(#a28482834a)"><path fill="#fefefe" d="M 139.445312 281.714844 C 139.707031 281.714844 139.96875 281.765625 140.214844 281.859375 C 140.757812 282.070312 141.1875 282.484375 141.414062 283.015625 C 144.527344 290.332031 151.675781 295.0625 159.628906 295.0625 C 170.539062 295.0625 179.414062 286.1875 179.414062 275.277344 L 179.414062 118.101562 C 179.414062 107.195312 170.539062 98.316406 159.628906 98.316406 C 148.71875 98.316406 139.84375 107.195312 139.84375 118.101562 C 139.84375 118.425781 139.851562 118.75 139.867188 119.066406 C 139.890625 119.636719 139.691406 120.191406 139.308594 120.613281 C 138.921875 121.03125 138.386719 121.285156 137.816406 121.304688 C 125.796875 121.785156 115.710938 130.75 113.835938 142.617188 C 113.730469 143.28125 113.320312 143.855469 112.726562 144.171875 C 104.433594 148.585938 99.285156 157.15625 99.285156 166.539062 C 99.285156 172.832031 101.605469 178.859375 105.820312 183.523438 C 106.308594 184.0625 106.488281 184.808594 106.300781 185.511719 C 106.113281 186.214844 105.578125 186.769531 104.890625 186.992188 C 96.675781 189.628906 91.15625 197.203125 91.15625 205.835938 C 91.15625 213.53125 95.671875 220.585938 102.667969 223.808594 C 103.34375 224.121094 103.804688 224.757812 103.894531 225.492188 C 103.984375 226.226562 103.691406 226.957031 103.113281 227.421875 C 98.410156 231.203125 95.710938 236.824219 95.710938 242.851562 C 95.710938 251.304688 101.082031 258.832031 109.078125 261.570312 C 109.953125 261.871094 110.535156 262.699219 110.523438 263.621094 L 110.519531 263.949219 C 110.519531 274.832031 119.394531 283.707031 130.304688 283.707031 C 133.179688 283.707031 135.957031 283.101562 138.550781 281.910156 C 138.835938 281.78125 139.140625 281.714844 139.445312 281.714844 Z M 159.628906 299.339844 C 150.664062 299.339844 142.539062 294.402344 138.386719 286.59375 C 135.800781 287.515625 133.09375 287.984375 130.304688 287.984375 C 117.425781 287.984375 106.875 277.8125 106.269531 265.078125 C 97.335938 261.375 91.433594 252.625 91.433594 242.851562 C 91.433594 236.574219 93.839844 230.660156 98.125 226.203125 C 91.207031 221.835938 86.878906 214.140625 86.878906 205.835938 C 86.878906 196.371094 92.335938 187.953125 100.730469 184.039062 C 97.019531 178.984375 95.007812 172.875 95.007812 166.542969 C 95.007812 155.925781 100.644531 146.199219 109.792969 140.910156 C 112.269531 128.230469 122.804688 118.597656 135.582031 117.1875 C 136.066406 104.34375 146.667969 94.042969 159.632812 94.042969 C 172.898438 94.042969 183.691406 104.835938 183.691406 118.105469 L 183.691406 275.28125 C 183.691406 288.546875 172.894531 299.339844 159.628906 299.339844 " fill-opacity="1" fill-rule="evenodd"/></g><path fill="#fefefe" d="M 136.28125 155.550781 C 135.386719 155.550781 134.558594 154.988281 134.253906 154.097656 C 134.0625 153.542969 129.519531 141.074219 112.121094 144.382812 C 110.960938 144.605469 109.839844 143.84375 109.621094 142.683594 C 109.398438 141.523438 110.160156 140.402344 111.320312 140.183594 C 132.488281 136.160156 138.25 152.5625 138.308594 152.730469 C 138.683594 153.847656 138.078125 155.0625 136.960938 155.4375 C 136.734375 155.515625 136.503906 155.550781 136.28125 155.550781 " fill-opacity="1" fill-rule="evenodd"/><path fill="#fefefe" d="M 101.773438 227.894531 C 100.914062 227.894531 100.101562 227.371094 99.777344 226.515625 C 99.355469 225.410156 99.910156 224.175781 101.011719 223.757812 C 117.476562 217.484375 118.765625 206.828125 118.777344 206.71875 C 118.902344 205.546875 119.949219 204.695312 121.125 204.8125 C 122.300781 204.9375 123.15625 205.988281 123.03125 207.160156 C 122.972656 207.707031 121.429688 220.554688 102.535156 227.753906 C 102.285156 227.847656 102.027344 227.894531 101.773438 227.894531 " fill-opacity="1" fill-rule="evenodd"/><path fill="#fefefe" d="M 139.445312 285.992188 C 139.433594 285.992188 139.421875 285.992188 139.40625 285.992188 C 138.222656 285.96875 137.285156 284.996094 137.308594 283.8125 C 137.644531 265.578125 154.660156 258.234375 155.386719 257.929688 C 156.476562 257.476562 157.726562 257.988281 158.183594 259.074219 C 158.640625 260.164062 158.128906 261.417969 157.042969 261.875 C 156.417969 262.136719 141.867188 268.488281 141.582031 283.894531 C 141.5625 285.0625 140.609375 285.992188 139.445312 285.992188 " fill-opacity="1" fill-rule="evenodd"/><path fill="#fefefe" d="M 144.355469 186.640625 C 142.960938 186.640625 141.582031 186.523438 140.214844 186.28125 C 129.628906 184.425781 123.917969 176.023438 123.679688 175.667969 C 123.027344 174.683594 123.292969 173.359375 124.273438 172.699219 C 125.253906 172.046875 126.582031 172.3125 127.238281 173.289062 C 127.292969 173.371094 132.242188 180.566406 141.003906 182.078125 C 147.460938 183.191406 154.449219 181.015625 161.773438 175.609375 C 162.726562 174.90625 164.066406 175.105469 164.765625 176.058594 C 165.46875 177.007812 165.265625 178.347656 164.316406 179.046875 C 157.476562 184.097656 150.78125 186.640625 144.355469 186.640625 " fill-opacity="1" fill-rule="evenodd"/><path fill="#fefefe" d="M 141.40625 205.660156 C 140.242188 205.660156 139.289062 204.730469 139.269531 203.5625 C 139.257812 202.917969 139.125 187.734375 151.089844 181.316406 C 152.128906 180.757812 153.425781 181.148438 153.980469 182.191406 C 154.542969 183.230469 154.148438 184.527344 153.109375 185.085938 C 143.472656 190.257812 143.542969 203.359375 143.542969 203.492188 C 143.5625 204.671875 142.617188 205.644531 141.441406 205.660156 C 141.429688 205.660156 141.414062 205.660156 141.40625 205.660156 " fill-opacity="1" fill-rule="evenodd"/><path fill="#fefefe" d="M 134.195312 239.554688 C 127.769531 239.554688 121.074219 237.011719 114.234375 231.960938 C 113.28125 231.261719 113.082031 229.921875 113.78125 228.972656 C 114.484375 228.019531 115.824219 227.820312 116.773438 228.519531 C 124.097656 233.925781 131.085938 236.101562 137.546875 234.992188 C 146.316406 233.476562 151.265625 226.277344 151.3125 226.203125 C 151.972656 225.226562 153.300781 224.964844 154.277344 225.621094 C 155.257812 226.277344 155.523438 227.597656 154.867188 228.582031 C 154.628906 228.9375 148.921875 237.339844 138.335938 239.195312 C 136.96875 239.433594 135.589844 239.554688 134.195312 239.554688 " fill-opacity="1" fill-rule="evenodd"/><path fill="#fefefe" d="M 137.144531 258.578125 C 137.132812 258.578125 137.117188 258.578125 137.105469 258.574219 C 135.925781 258.554688 134.988281 257.582031 135.003906 256.402344 C 135.007812 256.273438 135.078125 243.167969 125.441406 237.996094 C 124.398438 237.441406 124.007812 236.144531 124.566406 235.105469 C 125.125 234.0625 126.421875 233.671875 127.464844 234.230469 C 139.425781 240.644531 139.292969 255.832031 139.28125 256.472656 C 139.261719 257.644531 138.308594 258.578125 137.144531 258.578125 " fill-opacity="1" fill-rule="evenodd"/><path fill="#fefefe" d="M 160.070312 149.964844 C 158.90625 149.964844 157.953125 149.035156 157.929688 147.867188 C 157.921875 147.222656 157.789062 132.039062 169.75 125.621094 C 170.792969 125.0625 172.089844 125.453125 172.648438 126.492188 C 173.203125 127.53125 172.816406 128.828125 171.773438 129.390625 C 162.085938 134.585938 162.207031 147.65625 162.210938 147.789062 C 162.230469 148.972656 161.289062 149.945312 160.109375 149.964844 C 160.097656 149.964844 160.082031 149.964844 160.070312 149.964844 " fill-opacity="1" fill-rule="evenodd"/><path fill="#fefefe" d="M 153.085938 137.015625 C 143.941406 137.015625 139.800781 132.617188 139.566406 132.363281 C 138.773438 131.488281 138.835938 130.132812 139.710938 129.339844 C 140.578125 128.550781 141.921875 128.609375 142.71875 129.46875 C 143.007812 129.769531 149.09375 135.835938 164.105469 130.679688 C 165.222656 130.296875 166.4375 130.890625 166.820312 132.007812 C 167.207031 133.125 166.613281 134.339844 165.492188 134.722656 C 160.625 136.398438 156.507812 137.015625 153.085938 137.015625 " fill-opacity="1" fill-rule="evenodd"/><path fill="#fefefe" d="M 157.921875 247.804688 C 157.773438 247.804688 157.625 247.789062 157.472656 247.757812 C 156.320312 247.507812 155.582031 246.371094 155.828125 245.21875 C 155.941406 244.6875 158.699219 232.246094 167.527344 227.828125 C 171.921875 225.632812 176.941406 225.804688 182.449219 228.347656 C 183.519531 228.84375 183.988281 230.113281 183.496094 231.183594 C 183 232.257812 181.726562 232.726562 180.65625 232.230469 C 176.386719 230.261719 172.613281 230.066406 169.441406 231.65625 C 162.429688 235.160156 160.035156 246.003906 160.011719 246.113281 C 159.796875 247.117188 158.910156 247.804688 157.921875 247.804688 " fill-opacity="1" fill-rule="evenodd"/><path fill="#fefefe" d="M 169.632812 169.234375 C 167.667969 169.234375 165.75 168.957031 163.878906 168.402344 C 154.921875 165.730469 150.519531 157.605469 150.335938 157.261719 C 149.78125 156.21875 150.179688 154.921875 151.222656 154.371094 C 152.265625 153.816406 153.554688 154.210938 154.113281 155.25 C 154.164062 155.34375 157.921875 162.183594 165.140625 164.3125 C 169.804688 165.6875 174.976562 164.839844 180.519531 161.789062 C 181.554688 161.21875 182.855469 161.59375 183.425781 162.628906 C 183.996094 163.664062 183.621094 164.964844 182.582031 165.535156 C 178.109375 168 173.773438 169.234375 169.632812 169.234375 " fill-opacity="1" fill-rule="evenodd"/><path fill="#fefefe" d="M 150.515625 219.332031 C 149.472656 219.332031 148.5625 218.570312 148.402344 217.511719 C 148.230469 216.34375 149.03125 215.253906 150.203125 215.078125 C 158.304688 213.863281 162.761719 199.058594 163.792969 193.457031 C 164.003906 192.296875 165.117188 191.523438 166.28125 191.742188 C 167.441406 191.953125 168.210938 193.070312 167.996094 194.230469 C 167.824219 195.175781 163.589844 217.394531 150.835938 219.308594 C 150.730469 219.324219 150.621094 219.332031 150.515625 219.332031 " fill-opacity="1" fill-rule="evenodd"/><g clip-path="url(#fded73d098)"><path fill="#fefefe" d="M 217.144531 98.316406 C 206.234375 98.316406 197.359375 107.195312 197.359375 118.101562 L 197.359375 275.277344 C 197.359375 286.1875 206.234375 295.0625 217.144531 295.0625 C 225.097656 295.0625 232.246094 290.335938 235.359375 283.015625 C 235.585938 282.484375 236.019531 282.070312 236.558594 281.859375 C 237.09375 281.652344 237.695312 281.671875 238.21875 281.910156 C 240.816406 283.105469 243.589844 283.707031 246.46875 283.707031 C 257.378906 283.707031 266.253906 274.832031 266.253906 263.921875 L 266.25 263.621094 C 266.238281 262.699219 266.820312 261.871094 267.695312 261.570312 C 275.6875 258.832031 281.0625 251.304688 281.0625 242.851562 C 281.0625 236.824219 278.363281 231.203125 273.660156 227.421875 C 273.082031 226.957031 272.785156 226.226562 272.878906 225.496094 C 272.96875 224.757812 273.433594 224.121094 274.105469 223.8125 C 281.097656 220.585938 285.617188 213.53125 285.617188 205.835938 C 285.617188 197.203125 280.097656 189.628906 271.886719 186.996094 C 271.191406 186.773438 270.660156 186.214844 270.472656 185.511719 C 270.285156 184.808594 270.464844 184.0625 270.953125 183.523438 C 275.167969 178.863281 277.492188 172.832031 277.492188 166.542969 C 277.492188 157.15625 272.339844 148.585938 264.042969 144.171875 C 263.453125 143.855469 263.042969 143.28125 262.9375 142.617188 C 261.0625 130.75 250.972656 121.785156 238.957031 121.308594 C 238.386719 121.285156 237.851562 121.035156 237.464844 120.613281 C 237.078125 120.191406 236.878906 119.636719 236.90625 119.066406 C 236.921875 118.75 236.929688 118.425781 236.929688 118.105469 C 236.929688 107.195312 228.054688 98.316406 217.144531 98.316406 Z M 217.144531 299.339844 C 203.875 299.339844 193.082031 288.546875 193.082031 275.277344 L 193.082031 118.101562 C 193.082031 104.835938 203.875 94.039062 217.144531 94.039062 C 230.105469 94.039062 240.707031 104.339844 241.191406 117.1875 C 253.96875 118.597656 264.503906 128.226562 266.980469 140.910156 C 276.128906 146.199219 281.769531 155.925781 281.769531 166.542969 C 281.769531 172.875 279.753906 178.984375 276.046875 184.039062 C 284.441406 187.953125 289.894531 196.371094 289.894531 205.835938 C 289.894531 214.140625 285.566406 221.835938 278.648438 226.199219 C 282.933594 230.660156 285.339844 236.574219 285.339844 242.851562 C 285.339844 252.625 279.4375 261.375 270.503906 265.078125 C 269.886719 277.824219 259.34375 287.984375 246.46875 287.984375 C 243.679688 287.984375 240.972656 287.515625 238.390625 286.59375 C 234.234375 294.398438 226.109375 299.339844 217.144531 299.339844 " fill-opacity="1" fill-rule="evenodd"/></g><path fill="#fefefe" d="M 240.492188 155.550781 C 240.269531 155.550781 240.039062 155.515625 239.8125 155.4375 C 238.695312 155.0625 238.089844 153.847656 238.464844 152.730469 C 238.523438 152.5625 244.28125 136.15625 265.449219 140.183594 C 266.609375 140.402344 267.375 141.523438 267.152344 142.683594 C 266.933594 143.84375 265.820312 144.605469 264.652344 144.382812 C 247.113281 141.046875 242.699219 153.554688 242.523438 154.089844 C 242.222656 154.984375 241.386719 155.550781 240.492188 155.550781 " fill-opacity="1" fill-rule="evenodd"/><path fill="#fefefe" d="M 275 227.894531 C 274.746094 227.894531 274.488281 227.847656 274.238281 227.753906 C 255.339844 220.554688 253.796875 207.707031 253.742188 207.160156 C 253.621094 205.988281 254.472656 204.9375 255.648438 204.8125 C 256.816406 204.695312 257.863281 205.539062 257.996094 206.703125 C 258.050781 207.179688 259.5 217.558594 275.761719 223.757812 C 276.863281 224.175781 277.417969 225.410156 277 226.515625 C 276.671875 227.367188 275.859375 227.894531 275 227.894531 " fill-opacity="1" fill-rule="evenodd"/><path fill="#fefefe" d="M 237.328125 285.992188 C 236.164062 285.992188 235.210938 285.0625 235.191406 283.894531 C 234.902344 268.414062 219.886719 261.9375 219.734375 261.875 C 218.644531 261.417969 218.132812 260.164062 218.589844 259.074219 C 219.046875 257.988281 220.296875 257.472656 221.386719 257.929688 C 222.113281 258.234375 239.128906 265.578125 239.464844 283.8125 C 239.488281 284.996094 238.546875 285.96875 237.367188 285.992188 C 237.355469 285.992188 237.339844 285.992188 237.328125 285.992188 " fill-opacity="1" fill-rule="evenodd"/><path fill="#fefefe" d="M 232.417969 186.640625 C 225.992188 186.640625 219.296875 184.097656 212.457031 179.050781 C 211.507812 178.347656 211.304688 177.007812 212.003906 176.058594 C 212.707031 175.105469 214.042969 174.90625 214.996094 175.609375 C 222.320312 181.015625 229.3125 183.191406 235.769531 182.078125 C 244.539062 180.566406 249.488281 173.363281 249.535156 173.289062 C 250.195312 172.3125 251.523438 172.050781 252.5 172.707031 C 253.480469 173.363281 253.746094 174.6875 253.089844 175.667969 C 252.851562 176.023438 247.144531 184.425781 236.558594 186.28125 C 235.191406 186.519531 233.8125 186.640625 232.417969 186.640625 " fill-opacity="1" fill-rule="evenodd"/><path fill="#fefefe" d="M 235.371094 205.664062 C 235.355469 205.664062 235.34375 205.664062 235.328125 205.664062 C 234.152344 205.640625 233.210938 204.671875 233.230469 203.492188 C 233.230469 203.359375 233.300781 190.257812 223.664062 185.085938 C 222.625 184.527344 222.234375 183.230469 222.792969 182.191406 C 223.347656 181.148438 224.644531 180.761719 225.6875 181.316406 C 237.648438 187.734375 237.515625 202.917969 237.507812 203.5625 C 237.484375 204.730469 236.53125 205.664062 235.371094 205.664062 " fill-opacity="1" fill-rule="evenodd"/><path fill="#fefefe" d="M 242.578125 239.554688 C 241.1875 239.554688 239.804688 239.433594 238.4375 239.195312 C 227.851562 237.339844 222.144531 228.9375 221.902344 228.582031 C 221.25 227.597656 221.515625 226.269531 222.5 225.613281 C 223.480469 224.960938 224.804688 225.226562 225.460938 226.203125 C 225.539062 226.320312 230.484375 233.484375 239.226562 234.992188 C 245.683594 236.101562 252.675781 233.925781 260 228.519531 C 260.949219 227.820312 262.289062 228.019531 262.988281 228.972656 C 263.691406 229.921875 263.488281 231.257812 262.539062 231.960938 C 255.699219 237.011719 249.003906 239.554688 242.578125 239.554688 " fill-opacity="1" fill-rule="evenodd"/><path fill="#fefefe" d="M 239.628906 258.578125 C 238.464844 258.578125 237.511719 257.644531 237.492188 256.476562 C 237.480469 255.832031 237.347656 240.644531 249.3125 234.230469 C 250.351562 233.671875 251.648438 234.0625 252.203125 235.105469 C 252.765625 236.144531 252.375 237.441406 251.332031 238 C 241.648438 243.195312 241.765625 256.269531 241.769531 256.398438 C 241.789062 257.578125 240.847656 258.554688 239.667969 258.574219 C 239.65625 258.578125 239.644531 258.578125 239.628906 258.578125 " fill-opacity="1" fill-rule="evenodd"/><path fill="#fefefe" d="M 216.703125 149.964844 C 216.691406 149.964844 216.675781 149.964844 216.664062 149.964844 C 215.484375 149.945312 214.546875 148.972656 214.5625 147.792969 C 214.570312 147.664062 214.636719 134.558594 205 129.390625 C 203.957031 128.832031 203.570312 127.535156 204.125 126.496094 C 204.683594 125.453125 205.980469 125.0625 207.023438 125.621094 C 218.984375 132.039062 218.851562 147.222656 218.84375 147.867188 C 218.820312 149.035156 217.867188 149.964844 216.703125 149.964844 " fill-opacity="1" fill-rule="evenodd"/><path fill="#fefefe" d="M 223.6875 137.015625 C 220.269531 137.015625 216.152344 136.398438 211.277344 134.722656 C 210.164062 134.339844 209.566406 133.121094 209.953125 132.007812 C 210.335938 130.890625 211.554688 130.296875 212.667969 130.679688 C 227.730469 135.855469 233.808594 129.726562 234.058594 129.464844 C 234.867188 128.617188 236.214844 128.570312 237.074219 129.367188 C 237.929688 130.164062 237.992188 131.496094 237.207031 132.363281 C 236.972656 132.617188 232.828125 137.015625 223.6875 137.015625 " fill-opacity="1" fill-rule="evenodd"/><path fill="#fefefe" d="M 218.851562 247.804688 C 217.867188 247.804688 216.980469 247.117188 216.761719 246.117188 C 216.734375 245.984375 214.304688 235.128906 207.324219 231.648438 C 204.148438 230.070312 200.378906 230.265625 196.117188 232.230469 C 195.042969 232.722656 193.773438 232.257812 193.277344 231.183594 C 192.785156 230.113281 193.253906 228.84375 194.324219 228.347656 C 199.832031 225.804688 204.851562 225.632812 209.246094 227.828125 C 218.074219 232.246094 220.832031 244.6875 220.945312 245.21875 C 221.191406 246.371094 220.453125 247.507812 219.300781 247.757812 C 219.148438 247.789062 219 247.804688 218.851562 247.804688 " fill-opacity="1" fill-rule="evenodd"/><path fill="#fefefe" d="M 207.140625 169.234375 C 203 169.234375 198.667969 168 194.1875 165.535156 C 193.15625 164.964844 192.777344 163.664062 193.347656 162.628906 C 193.917969 161.59375 195.21875 161.21875 196.253906 161.789062 C 201.808594 164.847656 207 165.695312 211.671875 164.300781 C 218.933594 162.136719 222.621094 155.324219 222.660156 155.253906 C 223.214844 154.210938 224.507812 153.816406 225.550781 154.371094 C 226.59375 154.921875 226.988281 156.21875 226.4375 157.261719 C 226.253906 157.605469 221.851562 165.730469 212.894531 168.402344 C 211.023438 168.957031 209.101562 169.234375 207.140625 169.234375 " fill-opacity="1" fill-rule="evenodd"/><path fill="#fefefe" d="M 226.257812 219.332031 C 226.152344 219.332031 226.046875 219.324219 225.9375 219.308594 C 213.183594 217.394531 208.949219 195.175781 208.777344 194.230469 C 208.5625 193.070312 209.332031 191.957031 210.492188 191.742188 C 211.65625 191.523438 212.765625 192.296875 212.984375 193.457031 C 214.019531 199.058594 218.484375 213.863281 226.574219 215.078125 C 227.738281 215.253906 228.546875 216.34375 228.371094 217.507812 C 228.210938 218.570312 227.296875 219.332031 226.257812 219.332031 " fill-opacity="1" fill-rule="evenodd"/><g fill="#7b2721" fill-opacity="1"><g transform="translate(137.544137, 71.337946)"><g><path d="M 5.359375 -8.703125 C 6.484375 -8.703125 7.359375 -8.316406 7.984375 -7.546875 C 8.609375 -6.785156 8.921875 -5.703125 8.921875 -4.296875 C 8.921875 -2.890625 8.601562 -1.796875 7.96875 -1.015625 C 7.34375 -0.234375 6.472656 0.15625 5.359375 0.15625 C 4.804688 0.15625 4.296875 0.0507812 3.828125 -0.15625 C 3.367188 -0.363281 2.984375 -0.679688 2.671875 -1.109375 L 2.578125 -1.109375 L 2.3125 0 L 1.375 0 L 1.375 -12.15625 L 2.671875 -12.15625 L 2.671875 -9.203125 C 2.671875 -8.546875 2.648438 -7.953125 2.609375 -7.421875 L 2.671875 -7.421875 C 3.273438 -8.273438 4.171875 -8.703125 5.359375 -8.703125 Z M 5.171875 -7.625 C 4.285156 -7.625 3.644531 -7.367188 3.25 -6.859375 C 2.863281 -6.347656 2.671875 -5.492188 2.671875 -4.296875 C 2.671875 -3.085938 2.867188 -2.222656 3.265625 -1.703125 C 3.671875 -1.191406 4.316406 -0.9375 5.203125 -0.9375 C 6.003906 -0.9375 6.597656 -1.222656 6.984375 -1.796875 C 7.378906 -2.378906 7.578125 -3.21875 7.578125 -4.3125 C 7.578125 -5.425781 7.378906 -6.253906 6.984375 -6.796875 C 6.597656 -7.347656 5.992188 -7.625 5.171875 -7.625 Z M 5.171875 -7.625 "/></g></g></g><g fill="#7b2721" fill-opacity="1"><g transform="translate(147.346436, 71.337946)"><g><path d="M 2.59375 -8.5625 L 2.59375 -3.015625 C 2.59375 -2.316406 2.75 -1.796875 3.0625 -1.453125 C 3.382812 -1.109375 3.882812 -0.9375 4.5625 -0.9375 C 5.457031 -0.9375 6.113281 -1.179688 6.53125 -1.671875 C 6.945312 -2.160156 7.15625 -2.957031 7.15625 -4.0625 L 7.15625 -8.5625 L 8.453125 -8.5625 L 8.453125 0 L 7.375 0 L 7.1875 -1.15625 L 7.125 -1.15625 C 6.851562 -0.726562 6.484375 -0.398438 6.015625 -0.171875 C 5.546875 0.046875 5.007812 0.15625 4.40625 0.15625 C 3.363281 0.15625 2.582031 -0.0859375 2.0625 -0.578125 C 1.539062 -1.078125 1.28125 -1.875 1.28125 -2.96875 L 1.28125 -8.5625 Z M 2.59375 -8.5625 "/></g></g></g><g fill="#7b2721" fill-opacity="1"><g transform="translate(157.164356, 71.337946)"><g><path d="M 4.140625 -0.921875 C 4.367188 -0.921875 4.585938 -0.9375 4.796875 -0.96875 C 5.015625 -1 5.1875 -1.035156 5.3125 -1.078125 L 5.3125 -0.078125 C 5.175781 -0.00390625 4.96875 0.0507812 4.6875 0.09375 C 4.414062 0.132812 4.171875 0.15625 3.953125 0.15625 C 2.296875 0.15625 1.46875 -0.71875 1.46875 -2.46875 L 1.46875 -7.5625 L 0.25 -7.5625 L 0.25 -8.1875 L 1.46875 -8.71875 L 2.015625 -10.546875 L 2.765625 -10.546875 L 2.765625 -8.5625 L 5.25 -8.5625 L 5.25 -7.5625 L 2.765625 -7.5625 L 2.765625 -2.515625 C 2.765625 -2.003906 2.882812 -1.609375 3.125 -1.328125 C 3.375 -1.054688 3.710938 -0.921875 4.140625 -0.921875 Z M 4.140625 -0.921875 "/></g></g></g><g fill="#7b2721" fill-opacity="1"><g transform="translate(162.81142, 71.337946)"><g><path d="M 4.140625 -0.921875 C 4.367188 -0.921875 4.585938 -0.9375 4.796875 -0.96875 C 5.015625 -1 5.1875 -1.035156 5.3125 -1.078125 L 5.3125 -0.078125 C 5.175781 -0.00390625 4.96875 0.0507812 4.6875 0.09375 C 4.414062 0.132812 4.171875 0.15625 3.953125 0.15625 C 2.296875 0.15625 1.46875 -0.71875 1.46875 -2.46875 L 1.46875 -7.5625 L 0.25 -7.5625 L 0.25 -8.1875 L 1.46875 -8.71875 L 2.015625 -10.546875 L 2.765625 -10.546875 L 2.765625 -8.5625 L 5.25 -8.5625 L 5.25 -7.5625 L 2.765625 -7.5625 L 2.765625 -2.515625 C 2.765625 -2.003906 2.882812 -1.609375 3.125 -1.328125 C 3.375 -1.054688 3.710938 -0.921875 4.140625 -0.921875 Z M 4.140625 -0.921875 "/></g></g></g><g fill="#7b2721" fill-opacity="1"><g transform="translate(168.458484, 71.337946)"><g><path d="M 8.765625 -4.296875 C 8.765625 -2.898438 8.410156 -1.804688 7.703125 -1.015625 C 7.003906 -0.234375 6.035156 0.15625 4.796875 0.15625 C 4.035156 0.15625 3.359375 -0.0195312 2.765625 -0.375 C 2.171875 -0.738281 1.710938 -1.253906 1.390625 -1.921875 C 1.066406 -2.597656 0.90625 -3.390625 0.90625 -4.296875 C 0.90625 -5.691406 1.253906 -6.773438 1.953125 -7.546875 C 2.648438 -8.328125 3.617188 -8.71875 4.859375 -8.71875 C 6.054688 -8.71875 7.003906 -8.316406 7.703125 -7.515625 C 8.410156 -6.722656 8.765625 -5.648438 8.765625 -4.296875 Z M 2.25 -4.296875 C 2.25 -3.203125 2.46875 -2.367188 2.90625 -1.796875 C 3.34375 -1.222656 3.984375 -0.9375 4.828125 -0.9375 C 5.679688 -0.9375 6.328125 -1.21875 6.765625 -1.78125 C 7.203125 -2.351562 7.421875 -3.191406 7.421875 -4.296875 C 7.421875 -5.378906 7.203125 -6.203125 6.765625 -6.765625 C 6.328125 -7.335938 5.675781 -7.625 4.8125 -7.625 C 3.96875 -7.625 3.328125 -7.34375 2.890625 -6.78125 C 2.460938 -6.226562 2.25 -5.398438 2.25 -4.296875 Z M 2.25 -4.296875 "/></g></g></g><g fill="#7b2721" fill-opacity="1"><g transform="translate(178.120192, 71.337946)"><g><path d="M 7.234375 0 L 7.234375 -5.546875 C 7.234375 -6.242188 7.070312 -6.765625 6.75 -7.109375 C 6.4375 -7.453125 5.941406 -7.625 5.265625 -7.625 C 4.367188 -7.625 3.710938 -7.378906 3.296875 -6.890625 C 2.878906 -6.410156 2.671875 -5.613281 2.671875 -4.5 L 2.671875 0 L 1.375 0 L 1.375 -8.5625 L 2.4375 -8.5625 L 2.640625 -7.390625 L 2.703125 -7.390625 C 2.972656 -7.816406 3.347656 -8.144531 3.828125 -8.375 C 4.304688 -8.601562 4.835938 -8.71875 5.421875 -8.71875 C 6.453125 -8.71875 7.226562 -8.46875 7.75 -7.96875 C 8.269531 -7.476562 8.53125 -6.6875 8.53125 -5.59375 L 8.53125 0 Z M 7.234375 0 "/></g></g></g><g fill="#7b2721" fill-opacity="1"><g transform="translate(187.938112, 71.337946)"><g><path d="M 8.75 0 L 7.328125 -3.640625 L 2.75 -3.640625 L 1.34375 0 L 0 0 L 4.515625 -11.46875 L 5.640625 -11.46875 L 10.125 0 Z M 6.921875 -4.828125 L 5.59375 -8.375 C 5.414062 -8.820312 5.238281 -9.367188 5.0625 -10.015625 C 4.945312 -9.515625 4.78125 -8.96875 4.5625 -8.375 L 3.21875 -4.828125 Z M 6.921875 -4.828125 "/></g></g></g><g fill="#7b2721" fill-opacity="1"><g transform="translate(198.060639, 71.337946)"><g><path d="M 6.90625 -2.34375 C 6.90625 -1.539062 6.609375 -0.921875 6.015625 -0.484375 C 5.421875 -0.0546875 4.585938 0.15625 3.515625 0.15625 C 2.378906 0.15625 1.492188 -0.0234375 0.859375 -0.390625 L 0.859375 -1.59375 C 1.265625 -1.382812 1.703125 -1.21875 2.171875 -1.09375 C 2.648438 -0.976562 3.109375 -0.921875 3.546875 -0.921875 C 4.222656 -0.921875 4.742188 -1.023438 5.109375 -1.234375 C 5.472656 -1.453125 5.65625 -1.785156 5.65625 -2.234375 C 5.65625 -2.566406 5.507812 -2.847656 5.21875 -3.078125 C 4.925781 -3.316406 4.363281 -3.597656 3.53125 -3.921875 C 2.726562 -4.222656 2.160156 -4.484375 1.828125 -4.703125 C 1.492188 -4.921875 1.242188 -5.171875 1.078125 -5.453125 C 0.910156 -5.734375 0.828125 -6.070312 0.828125 -6.46875 C 0.828125 -7.164062 1.109375 -7.710938 1.671875 -8.109375 C 2.242188 -8.515625 3.023438 -8.71875 4.015625 -8.71875 C 4.941406 -8.71875 5.84375 -8.53125 6.71875 -8.15625 L 6.265625 -7.109375 C 5.398438 -7.460938 4.617188 -7.640625 3.921875 -7.640625 C 3.304688 -7.640625 2.84375 -7.539062 2.53125 -7.34375 C 2.21875 -7.15625 2.0625 -6.890625 2.0625 -6.546875 C 2.0625 -6.316406 2.117188 -6.117188 2.234375 -5.953125 C 2.359375 -5.796875 2.550781 -5.644531 2.8125 -5.5 C 3.070312 -5.351562 3.570312 -5.144531 4.3125 -4.875 C 5.320312 -4.5 6.003906 -4.125 6.359375 -3.75 C 6.722656 -3.375 6.90625 -2.90625 6.90625 -2.34375 Z M 6.90625 -2.34375 "/></g></g></g><g fill="#7b2721" fill-opacity="1"><g transform="translate(205.691593, 71.337946)"><g><path d="M 2.65625 -4.390625 C 2.882812 -4.703125 3.226562 -5.117188 3.6875 -5.640625 L 6.453125 -8.5625 L 7.984375 -8.5625 L 4.515625 -4.921875 L 8.234375 0 L 6.65625 0 L 3.640625 -4.046875 L 2.65625 -3.203125 L 2.65625 0 L 1.375 0 L 1.375 -12.15625 L 2.65625 -12.15625 L 2.65625 -5.71875 C 2.65625 -5.425781 2.632812 -4.984375 2.59375 -4.390625 Z M 2.65625 -4.390625 "/></g></g></g><g fill="#7b2721" fill-opacity="1"><g transform="translate(214.087986, 71.337946)"><g><path d="M 10.25 0 L 8.921875 0 L 8.921875 -5.375 L 2.90625 -5.375 L 2.90625 0 L 1.578125 0 L 1.578125 -11.421875 L 2.90625 -11.421875 L 2.90625 -6.5625 L 8.921875 -6.5625 L 8.921875 -11.421875 L 10.25 -11.421875 Z M 10.25 0 "/></g></g></g><g fill="#7b2721" fill-opacity="1"><g transform="translate(225.889796, 71.337946)"><g><path d="M 5 0.15625 C 3.726562 0.15625 2.726562 -0.226562 2 -1 C 1.269531 -1.769531 0.90625 -2.84375 0.90625 -4.21875 C 0.90625 -5.59375 1.242188 -6.6875 1.921875 -7.5 C 2.597656 -8.3125 3.507812 -8.71875 4.65625 -8.71875 C 5.726562 -8.71875 6.578125 -8.363281 7.203125 -7.65625 C 7.828125 -6.957031 8.140625 -6.03125 8.140625 -4.875 L 8.140625 -4.046875 L 2.25 -4.046875 C 2.269531 -3.046875 2.519531 -2.285156 3 -1.765625 C 3.488281 -1.242188 4.171875 -0.984375 5.046875 -0.984375 C 5.960938 -0.984375 6.875 -1.175781 7.78125 -1.5625 L 7.78125 -0.40625 C 7.320312 -0.207031 6.882812 -0.0664062 6.46875 0.015625 C 6.0625 0.109375 5.570312 0.15625 5 0.15625 Z M 4.640625 -7.640625 C 3.953125 -7.640625 3.40625 -7.414062 3 -6.96875 C 2.59375 -6.519531 2.351562 -5.898438 2.28125 -5.109375 L 6.75 -5.109375 C 6.75 -5.921875 6.566406 -6.546875 6.203125 -6.984375 C 5.835938 -7.421875 5.316406 -7.640625 4.640625 -7.640625 Z M 4.640625 -7.640625 "/></g></g></g><g fill="#7b2721" fill-opacity="1"><g transform="translate(234.864172, 71.337946)"><g><path d="M 2.671875 0 L 1.375 0 L 1.375 -12.15625 L 2.671875 -12.15625 Z M 2.671875 0 "/></g></g></g><g fill="#7b2721" fill-opacity="1"><g transform="translate(238.910059, 71.337946)"><g><path d="M 5.359375 0.15625 C 4.804688 0.15625 4.296875 0.0507812 3.828125 -0.15625 C 3.367188 -0.363281 2.984375 -0.679688 2.671875 -1.109375 L 2.578125 -1.109375 C 2.640625 -0.609375 2.671875 -0.128906 2.671875 0.328125 L 2.671875 3.84375 L 1.375 3.84375 L 1.375 -8.5625 L 2.4375 -8.5625 L 2.609375 -7.390625 L 2.671875 -7.390625 C 3.003906 -7.859375 3.390625 -8.195312 3.828125 -8.40625 C 4.273438 -8.613281 4.785156 -8.71875 5.359375 -8.71875 C 6.492188 -8.71875 7.367188 -8.328125 7.984375 -7.546875 C 8.609375 -6.773438 8.921875 -5.691406 8.921875 -4.296875 C 8.921875 -2.890625 8.601562 -1.796875 7.96875 -1.015625 C 7.34375 -0.234375 6.472656 0.15625 5.359375 0.15625 Z M 5.171875 -7.625 C 4.296875 -7.625 3.660156 -7.378906 3.265625 -6.890625 C 2.878906 -6.410156 2.679688 -5.640625 2.671875 -4.578125 L 2.671875 -4.296875 C 2.671875 -3.085938 2.867188 -2.222656 3.265625 -1.703125 C 3.671875 -1.191406 4.316406 -0.9375 5.203125 -0.9375 C 5.941406 -0.9375 6.519531 -1.234375 6.9375 -1.828125 C 7.363281 -2.429688 7.578125 -3.257812 7.578125 -4.3125 C 7.578125 -5.375 7.363281 -6.191406 6.9375 -6.765625 C 6.519531 -7.335938 5.929688 -7.625 5.171875 -7.625 Z M 5.171875 -7.625 "/></g></g></g></svg>