<svg xmlns="http://www.w3.org/2000/svg" xmlns:xlink="http://www.w3.org/1999/xlink" width="500" zoomAndPan="magnify" viewBox="0 0 375 374.999991" height="500" preserveAspectRatio="xMidYMid meet" version="1.0"><defs><g/><clipPath id="fcd3cc5034"><path d="M 5.238281 9.105469 L 365.894531 9.105469 L 365.894531 369.761719 L 5.238281 369.761719 Z M 5.238281 9.105469 " clip-rule="nonzero"/></clipPath><clipPath id="a753907ae7"><path d="M 185.566406 9.105469 C 85.972656 9.105469 5.238281 89.84375 5.238281 189.433594 C 5.238281 289.027344 85.972656 369.761719 185.566406 369.761719 C 285.15625 369.761719 365.894531 289.027344 365.894531 189.433594 C 365.894531 89.84375 285.15625 9.105469 185.566406 9.105469 Z M 185.566406 9.105469 " clip-rule="nonzero"/></clipPath><clipPath id="cab72c3fee"><path d="M 73 79.90625 L 299 79.90625 L 299 305.65625 L 73 305.65625 Z M 73 79.90625 " clip-rule="nonzero"/></clipPath></defs><g clip-path="url(#fcd3cc5034)"><g clip-path="url(#a753907ae7)"><path fill="#7b2721" d="M 5.238281 9.105469 L 365.894531 9.105469 L 365.894531 369.761719 L 5.238281 369.761719 Z M 5.238281 9.105469 " fill-opacity="1" fill-rule="nonzero"/></g></g><g clip-path="url(#cab72c3fee)"><path fill="#fefefe" d="M 205.726562 169.75 C 207.316406 170.996094 208.121094 172.65625 208.121094 174.675781 L 208.121094 188.082031 C 208.121094 191.65625 210.503906 194.679688 213.765625 195.65625 L 213.765625 197.8125 C 213.765625 201.910156 217.097656 205.242188 221.195312 205.242188 L 233.835938 205.242188 C 237.933594 205.242188 241.265625 201.910156 241.265625 197.8125 L 241.265625 195.65625 C 244.527344 194.679688 246.910156 191.660156 246.910156 188.082031 L 246.910156 174.675781 C 246.910156 172.65625 247.714844 170.996094 249.304688 169.75 C 257.855469 163.015625 262.765625 152.914062 262.765625 142.039062 C 262.765625 122.601562 246.953125 106.789062 227.515625 106.789062 C 208.078125 106.789062 192.265625 122.601562 192.265625 142.039062 C 192.269531 152.910156 197.175781 163.011719 205.726562 169.75 Z M 213.730469 177.59375 L 241.304688 177.59375 L 241.304688 181.179688 L 213.730469 181.179688 Z M 233.839844 199.628906 L 221.195312 199.628906 C 220.207031 199.628906 219.375 198.796875 219.375 197.808594 L 219.375 195.988281 L 235.660156 195.988281 L 235.660156 197.808594 C 235.660156 198.796875 234.828125 199.628906 233.839844 199.628906 Z M 239.007812 190.375 L 216.027344 190.375 C 214.757812 190.375 213.730469 189.34375 213.730469 188.078125 L 213.730469 186.789062 L 241.304688 186.789062 L 241.304688 188.078125 C 241.304688 189.34375 240.277344 190.375 239.007812 190.375 Z M 227.515625 112.398438 C 243.855469 112.398438 257.15625 125.699219 257.15625 142.039062 C 257.15625 151.179688 253.03125 159.671875 245.835938 165.339844 C 243.636719 167.070312 242.183594 169.371094 241.597656 171.984375 L 213.4375 171.984375 C 212.847656 169.371094 211.394531 167.070312 209.199219 165.339844 C 202.003906 159.671875 197.878906 151.179688 197.878906 142.039062 C 197.878906 125.699219 211.171875 112.398438 227.515625 112.398438 Z M 224.710938 94.859375 L 224.710938 82.714844 C 224.710938 81.164062 225.96875 79.90625 227.515625 79.90625 C 229.0625 79.90625 230.320312 81.164062 230.320312 82.714844 L 230.320312 94.859375 C 230.320312 96.410156 229.0625 97.667969 227.515625 97.667969 C 225.96875 97.667969 224.710938 96.410156 224.710938 94.859375 Z M 258.894531 110.660156 C 257.800781 109.566406 257.800781 107.789062 258.894531 106.695312 L 267.484375 98.105469 C 268.578125 97.011719 270.355469 97.011719 271.453125 98.105469 C 272.546875 99.199219 272.546875 100.976562 271.453125 102.070312 L 262.863281 110.660156 C 262.316406 111.207031 261.597656 111.484375 260.882812 111.484375 C 260.167969 111.484375 259.441406 111.210938 258.894531 110.660156 Z M 271.890625 142.039062 C 271.890625 140.492188 273.148438 139.234375 274.695312 139.234375 L 286.84375 139.234375 C 288.390625 139.234375 289.648438 140.492188 289.648438 142.039062 C 289.648438 143.585938 288.390625 144.84375 286.84375 144.84375 L 274.695312 144.84375 C 273.148438 144.84375 271.890625 143.585938 271.890625 142.039062 Z M 271.449219 182.007812 C 272.542969 183.101562 272.542969 184.878906 271.449219 185.980469 C 270.902344 186.527344 270.183594 186.800781 269.46875 186.800781 C 268.746094 186.800781 268.03125 186.527344 267.484375 185.980469 L 258.894531 177.390625 C 257.800781 176.296875 257.800781 174.519531 258.894531 173.417969 C 259.988281 172.324219 261.765625 172.324219 262.863281 173.417969 Z M 183.582031 102.070312 C 182.488281 100.976562 182.488281 99.199219 183.582031 98.105469 C 184.675781 97.011719 186.453125 97.011719 187.550781 98.105469 L 196.140625 106.695312 C 197.234375 107.789062 197.234375 109.566406 196.140625 110.660156 C 195.59375 111.207031 194.875 111.484375 194.15625 111.484375 C 193.441406 111.484375 192.722656 111.207031 192.175781 110.660156 Z M 165.382812 142.039062 C 165.382812 140.492188 166.640625 139.234375 168.1875 139.234375 L 180.335938 139.234375 C 181.882812 139.234375 183.140625 140.492188 183.140625 142.039062 C 183.140625 143.585938 181.882812 144.84375 180.335938 144.84375 L 168.1875 144.84375 C 166.640625 144.84375 165.382812 143.585938 165.382812 142.039062 Z M 196.140625 173.414062 C 197.234375 174.507812 197.234375 176.285156 196.140625 177.382812 L 187.550781 185.972656 C 187.003906 186.519531 186.285156 186.796875 185.570312 186.796875 C 184.851562 186.796875 184.132812 186.519531 183.585938 185.972656 C 182.492188 184.878906 182.492188 183.101562 183.585938 182.003906 L 192.175781 173.414062 C 193.269531 172.320312 195.042969 172.320312 196.140625 173.414062 Z M 292.984375 221.449219 C 288.515625 217.277344 282.5625 215.792969 276.660156 217.367188 L 222.503906 231.796875 C 220.257812 227.695312 216.691406 224.882812 212.160156 223.65625 L 184.183594 216.082031 C 182.804688 215.707031 181.765625 215.136719 180.710938 214.175781 C 177.316406 211.074219 172.835938 208.585938 167.753906 206.976562 C 159.273438 204.296875 151.148438 204.800781 143.617188 208.46875 L 109.769531 224.957031 L 108.121094 221.125 C 105.878906 215.894531 99.789062 213.46875 94.558594 215.710938 L 79.402344 222.222656 C 74.171875 224.464844 71.746094 230.554688 73.988281 235.78125 L 101.152344 299.03125 C 102.828125 302.941406 106.648438 305.28125 110.652344 305.28125 C 112.007812 305.28125 113.386719 305.011719 114.710938 304.445312 L 129.867188 297.9375 C 132.390625 296.851562 134.347656 294.839844 135.375 292.273438 C 136.398438 289.707031 136.363281 286.902344 135.28125 284.375 L 133.625 280.519531 L 145.070312 274.820312 C 148.503906 273.109375 151.855469 272.816406 155.320312 273.929688 L 185.203125 283.535156 C 188.996094 284.753906 192.722656 285.363281 196.425781 285.363281 C 200.730469 285.363281 205.015625 284.539062 209.339844 282.890625 L 284.09375 254.367188 C 290.050781 252.09375 294.46875 247.773438 296.871094 241.867188 C 297.464844 240.414062 297.910156 238.929688 298.195312 237.453125 C 299.355469 231.457031 297.457031 225.621094 292.984375 221.449219 Z M 130.164062 290.199219 C 129.695312 291.371094 128.804688 292.292969 127.652344 292.789062 L 112.5 299.296875 C 110.109375 300.320312 107.332031 299.214844 106.304688 296.824219 L 79.148438 233.570312 C 78.652344 232.417969 78.640625 231.136719 79.109375 229.964844 C 79.578125 228.789062 80.46875 227.871094 81.621094 227.378906 L 96.773438 220.871094 C 97.378906 220.609375 98.007812 220.484375 98.625 220.484375 C 100.453125 220.484375 102.199219 221.558594 102.964844 223.34375 L 130.128906 286.59375 C 130.621094 287.738281 130.636719 289.019531 130.164062 290.199219 Z M 292.6875 236.394531 C 292.472656 237.511719 292.128906 238.640625 291.675781 239.753906 C 289.847656 244.25 286.628906 247.402344 282.097656 249.128906 L 207.34375 277.652344 C 200.535156 280.25 193.859375 280.429688 186.917969 278.199219 L 157.035156 268.597656 C 152.179688 267.035156 147.3125 267.441406 142.570312 269.800781 L 131.414062 275.355469 L 111.984375 230.117188 L 146.066406 213.511719 C 152.351562 210.449219 158.886719 210.058594 166.054688 212.324219 C 170.367188 213.6875 174.125 215.753906 176.917969 218.308594 C 178.628906 219.875 180.472656 220.882812 182.710938 221.492188 L 210.6875 229.066406 C 213.808594 229.914062 216.164062 231.792969 217.671875 234.660156 C 219.183594 237.523438 219.40625 240.527344 218.339844 243.585938 L 218.28125 243.761719 C 216.34375 249.3125 210.386719 252.4375 204.71875 250.875 L 165.410156 240.050781 C 163.917969 239.636719 162.371094 240.515625 161.960938 242.007812 C 161.546875 243.503906 162.429688 245.046875 163.917969 245.460938 L 203.230469 256.285156 C 204.707031 256.691406 206.199219 256.886719 207.667969 256.886719 C 214.652344 256.886719 221.171875 252.492188 223.574219 245.613281 L 223.632812 245.4375 C 224.601562 242.660156 224.84375 239.84375 224.375 237.105469 L 278.097656 222.792969 C 282.15625 221.707031 286.085938 222.691406 289.15625 225.554688 C 292.230469 228.421875 293.480469 232.269531 292.6875 236.394531 Z M 292.6875 236.394531 " fill-opacity="1" fill-rule="nonzero"/></g><g fill="#7b2721" fill-opacity="1"><g transform="translate(129.858951, 61.558414)"><g><path d="M 5.359375 -8.703125 C 6.484375 -8.703125 7.359375 -8.316406 7.984375 -7.546875 C 8.609375 -6.785156 8.921875 -5.703125 8.921875 -4.296875 C 8.921875 -2.890625 8.601562 -1.796875 7.96875 -1.015625 C 7.34375 -0.234375 6.472656 0.15625 5.359375 0.15625 C 4.804688 0.15625 4.296875 0.0507812 3.828125 -0.15625 C 3.367188 -0.363281 2.984375 -0.679688 2.671875 -1.109375 L 2.578125 -1.109375 L 2.3125 0 L 1.375 0 L 1.375 -12.15625 L 2.671875 -12.15625 L 2.671875 -9.203125 C 2.671875 -8.546875 2.648438 -7.953125 2.609375 -7.421875 L 2.671875 -7.421875 C 3.273438 -8.273438 4.171875 -8.703125 5.359375 -8.703125 Z M 5.171875 -7.625 C 4.285156 -7.625 3.644531 -7.367188 3.25 -6.859375 C 2.863281 -6.347656 2.671875 -5.492188 2.671875 -4.296875 C 2.671875 -3.085938 2.867188 -2.222656 3.265625 -1.703125 C 3.671875 -1.191406 4.316406 -0.9375 5.203125 -0.9375 C 6.003906 -0.9375 6.597656 -1.222656 6.984375 -1.796875 C 7.378906 -2.378906 7.578125 -3.21875 7.578125 -4.3125 C 7.578125 -5.425781 7.378906 -6.253906 6.984375 -6.796875 C 6.597656 -7.347656 5.992188 -7.625 5.171875 -7.625 Z M 5.171875 -7.625 "/></g></g></g><g fill="#7b2721" fill-opacity="1"><g transform="translate(139.66125, 61.558414)"><g><path d="M 2.59375 -8.5625 L 2.59375 -3.015625 C 2.59375 -2.316406 2.75 -1.796875 3.0625 -1.453125 C 3.382812 -1.109375 3.882812 -0.9375 4.5625 -0.9375 C 5.457031 -0.9375 6.113281 -1.179688 6.53125 -1.671875 C 6.945312 -2.160156 7.15625 -2.957031 7.15625 -4.0625 L 7.15625 -8.5625 L 8.453125 -8.5625 L 8.453125 0 L 7.375 0 L 7.1875 -1.15625 L 7.125 -1.15625 C 6.851562 -0.726562 6.484375 -0.398438 6.015625 -0.171875 C 5.546875 0.046875 5.007812 0.15625 4.40625 0.15625 C 3.363281 0.15625 2.582031 -0.0859375 2.0625 -0.578125 C 1.539062 -1.078125 1.28125 -1.875 1.28125 -2.96875 L 1.28125 -8.5625 Z M 2.59375 -8.5625 "/></g></g></g><g fill="#7b2721" fill-opacity="1"><g transform="translate(149.47917, 61.558414)"><g><path d="M 4.140625 -0.921875 C 4.367188 -0.921875 4.585938 -0.9375 4.796875 -0.96875 C 5.015625 -1 5.1875 -1.035156 5.3125 -1.078125 L 5.3125 -0.078125 C 5.175781 -0.00390625 4.96875 0.0507812 4.6875 0.09375 C 4.414062 0.132812 4.171875 0.15625 3.953125 0.15625 C 2.296875 0.15625 1.46875 -0.71875 1.46875 -2.46875 L 1.46875 -7.5625 L 0.25 -7.5625 L 0.25 -8.1875 L 1.46875 -8.71875 L 2.015625 -10.546875 L 2.765625 -10.546875 L 2.765625 -8.5625 L 5.25 -8.5625 L 5.25 -7.5625 L 2.765625 -7.5625 L 2.765625 -2.515625 C 2.765625 -2.003906 2.882812 -1.609375 3.125 -1.328125 C 3.375 -1.054688 3.710938 -0.921875 4.140625 -0.921875 Z M 4.140625 -0.921875 "/></g></g></g><g fill="#7b2721" fill-opacity="1"><g transform="translate(155.126234, 61.558414)"><g><path d="M 4.140625 -0.921875 C 4.367188 -0.921875 4.585938 -0.9375 4.796875 -0.96875 C 5.015625 -1 5.1875 -1.035156 5.3125 -1.078125 L 5.3125 -0.078125 C 5.175781 -0.00390625 4.96875 0.0507812 4.6875 0.09375 C 4.414062 0.132812 4.171875 0.15625 3.953125 0.15625 C 2.296875 0.15625 1.46875 -0.71875 1.46875 -2.46875 L 1.46875 -7.5625 L 0.25 -7.5625 L 0.25 -8.1875 L 1.46875 -8.71875 L 2.015625 -10.546875 L 2.765625 -10.546875 L 2.765625 -8.5625 L 5.25 -8.5625 L 5.25 -7.5625 L 2.765625 -7.5625 L 2.765625 -2.515625 C 2.765625 -2.003906 2.882812 -1.609375 3.125 -1.328125 C 3.375 -1.054688 3.710938 -0.921875 4.140625 -0.921875 Z M 4.140625 -0.921875 "/></g></g></g><g fill="#7b2721" fill-opacity="1"><g transform="translate(160.773298, 61.558414)"><g><path d="M 8.765625 -4.296875 C 8.765625 -2.898438 8.410156 -1.804688 7.703125 -1.015625 C 7.003906 -0.234375 6.035156 0.15625 4.796875 0.15625 C 4.035156 0.15625 3.359375 -0.0195312 2.765625 -0.375 C 2.171875 -0.738281 1.710938 -1.253906 1.390625 -1.921875 C 1.066406 -2.597656 0.90625 -3.390625 0.90625 -4.296875 C 0.90625 -5.691406 1.253906 -6.773438 1.953125 -7.546875 C 2.648438 -8.328125 3.617188 -8.71875 4.859375 -8.71875 C 6.054688 -8.71875 7.003906 -8.316406 7.703125 -7.515625 C 8.410156 -6.722656 8.765625 -5.648438 8.765625 -4.296875 Z M 2.25 -4.296875 C 2.25 -3.203125 2.46875 -2.367188 2.90625 -1.796875 C 3.34375 -1.222656 3.984375 -0.9375 4.828125 -0.9375 C 5.679688 -0.9375 6.328125 -1.21875 6.765625 -1.78125 C 7.203125 -2.351562 7.421875 -3.191406 7.421875 -4.296875 C 7.421875 -5.378906 7.203125 -6.203125 6.765625 -6.765625 C 6.328125 -7.335938 5.675781 -7.625 4.8125 -7.625 C 3.96875 -7.625 3.328125 -7.34375 2.890625 -6.78125 C 2.460938 -6.226562 2.25 -5.398438 2.25 -4.296875 Z M 2.25 -4.296875 "/></g></g></g><g fill="#7b2721" fill-opacity="1"><g transform="translate(170.435006, 61.558414)"><g><path d="M 7.234375 0 L 7.234375 -5.546875 C 7.234375 -6.242188 7.070312 -6.765625 6.75 -7.109375 C 6.4375 -7.453125 5.941406 -7.625 5.265625 -7.625 C 4.367188 -7.625 3.710938 -7.378906 3.296875 -6.890625 C 2.878906 -6.410156 2.671875 -5.613281 2.671875 -4.5 L 2.671875 0 L 1.375 0 L 1.375 -8.5625 L 2.4375 -8.5625 L 2.640625 -7.390625 L 2.703125 -7.390625 C 2.972656 -7.816406 3.347656 -8.144531 3.828125 -8.375 C 4.304688 -8.601562 4.835938 -8.71875 5.421875 -8.71875 C 6.453125 -8.71875 7.226562 -8.46875 7.75 -7.96875 C 8.269531 -7.476562 8.53125 -6.6875 8.53125 -5.59375 L 8.53125 0 Z M 7.234375 0 "/></g></g></g><g fill="#7b2721" fill-opacity="1"><g transform="translate(180.252926, 61.558414)"><g><path d="M 9.828125 0 L 8.265625 0 L 4.09375 -5.546875 L 2.90625 -4.484375 L 2.90625 0 L 1.578125 0 L 1.578125 -11.421875 L 2.90625 -11.421875 L 2.90625 -5.765625 L 8.078125 -11.421875 L 9.65625 -11.421875 L 5.0625 -6.46875 Z M 9.828125 0 "/></g></g></g><g fill="#7b2721" fill-opacity="1"><g transform="translate(190.070846, 61.558414)"><g><path d="M 7.234375 0 L 7.234375 -5.546875 C 7.234375 -6.242188 7.070312 -6.765625 6.75 -7.109375 C 6.4375 -7.453125 5.941406 -7.625 5.265625 -7.625 C 4.367188 -7.625 3.710938 -7.378906 3.296875 -6.890625 C 2.878906 -6.410156 2.671875 -5.613281 2.671875 -4.5 L 2.671875 0 L 1.375 0 L 1.375 -8.5625 L 2.4375 -8.5625 L 2.640625 -7.390625 L 2.703125 -7.390625 C 2.972656 -7.816406 3.347656 -8.144531 3.828125 -8.375 C 4.304688 -8.601562 4.835938 -8.71875 5.421875 -8.71875 C 6.453125 -8.71875 7.226562 -8.46875 7.75 -7.96875 C 8.269531 -7.476562 8.53125 -6.6875 8.53125 -5.59375 L 8.53125 0 Z M 7.234375 0 "/></g></g></g><g fill="#7b2721" fill-opacity="1"><g transform="translate(199.888766, 61.558414)"><g><path d="M 8.765625 -4.296875 C 8.765625 -2.898438 8.410156 -1.804688 7.703125 -1.015625 C 7.003906 -0.234375 6.035156 0.15625 4.796875 0.15625 C 4.035156 0.15625 3.359375 -0.0195312 2.765625 -0.375 C 2.171875 -0.738281 1.710938 -1.253906 1.390625 -1.921875 C 1.066406 -2.597656 0.90625 -3.390625 0.90625 -4.296875 C 0.90625 -5.691406 1.253906 -6.773438 1.953125 -7.546875 C 2.648438 -8.328125 3.617188 -8.71875 4.859375 -8.71875 C 6.054688 -8.71875 7.003906 -8.316406 7.703125 -7.515625 C 8.410156 -6.722656 8.765625 -5.648438 8.765625 -4.296875 Z M 2.25 -4.296875 C 2.25 -3.203125 2.46875 -2.367188 2.90625 -1.796875 C 3.34375 -1.222656 3.984375 -0.9375 4.828125 -0.9375 C 5.679688 -0.9375 6.328125 -1.21875 6.765625 -1.78125 C 7.203125 -2.351562 7.421875 -3.191406 7.421875 -4.296875 C 7.421875 -5.378906 7.203125 -6.203125 6.765625 -6.765625 C 6.328125 -7.335938 5.675781 -7.625 4.8125 -7.625 C 3.96875 -7.625 3.328125 -7.34375 2.890625 -6.78125 C 2.460938 -6.226562 2.25 -5.398438 2.25 -4.296875 Z M 2.25 -4.296875 "/></g></g></g><g fill="#7b2721" fill-opacity="1"><g transform="translate(209.550474, 61.558414)"><g><path d="M 8.375 0 L 6.796875 -5.03125 C 6.703125 -5.332031 6.519531 -6.03125 6.25 -7.125 L 6.1875 -7.125 C 5.976562 -6.207031 5.796875 -5.503906 5.640625 -5.015625 L 4.015625 0 L 2.515625 0 L 0.1875 -8.5625 L 1.546875 -8.5625 C 2.097656 -6.414062 2.515625 -4.78125 2.796875 -3.65625 C 3.085938 -2.53125 3.253906 -1.769531 3.296875 -1.375 L 3.359375 -1.375 C 3.421875 -1.675781 3.515625 -2.0625 3.640625 -2.53125 C 3.765625 -3 3.875 -3.375 3.96875 -3.65625 L 5.546875 -8.5625 L 6.953125 -8.5625 L 8.484375 -3.65625 C 8.773438 -2.757812 8.972656 -2.003906 9.078125 -1.390625 L 9.140625 -1.390625 C 9.160156 -1.578125 9.210938 -1.863281 9.296875 -2.25 C 9.390625 -2.644531 9.9375 -4.75 10.9375 -8.5625 L 12.28125 -8.5625 L 9.90625 0 Z M 8.375 0 "/></g></g></g><g fill="#7b2721" fill-opacity="1"><g transform="translate(221.992753, 61.558414)"><g><path d="M 10.203125 -11.421875 L 10.203125 -4.03125 C 10.203125 -2.726562 9.804688 -1.703125 9.015625 -0.953125 C 8.234375 -0.210938 7.15625 0.15625 5.78125 0.15625 C 4.40625 0.15625 3.335938 -0.21875 2.578125 -0.96875 C 1.828125 -1.71875 1.453125 -2.75 1.453125 -4.0625 L 1.453125 -11.421875 L 2.78125 -11.421875 L 2.78125 -3.96875 C 2.78125 -3.019531 3.039062 -2.289062 3.5625 -1.78125 C 4.082031 -1.269531 4.847656 -1.015625 5.859375 -1.015625 C 6.828125 -1.015625 7.570312 -1.269531 8.09375 -1.78125 C 8.613281 -2.289062 8.875 -3.023438 8.875 -3.984375 L 8.875 -11.421875 Z M 10.203125 -11.421875 "/></g></g></g><g fill="#7b2721" fill-opacity="1"><g transform="translate(233.638352, 61.558414)"><g><path d="M 6.90625 -2.34375 C 6.90625 -1.539062 6.609375 -0.921875 6.015625 -0.484375 C 5.421875 -0.0546875 4.585938 0.15625 3.515625 0.15625 C 2.378906 0.15625 1.492188 -0.0234375 0.859375 -0.390625 L 0.859375 -1.59375 C 1.265625 -1.382812 1.703125 -1.21875 2.171875 -1.09375 C 2.648438 -0.976562 3.109375 -0.921875 3.546875 -0.921875 C 4.222656 -0.921875 4.742188 -1.023438 5.109375 -1.234375 C 5.472656 -1.453125 5.65625 -1.785156 5.65625 -2.234375 C 5.65625 -2.566406 5.507812 -2.847656 5.21875 -3.078125 C 4.925781 -3.316406 4.363281 -3.597656 3.53125 -3.921875 C 2.726562 -4.222656 2.160156 -4.484375 1.828125 -4.703125 C 1.492188 -4.921875 1.242188 -5.171875 1.078125 -5.453125 C 0.910156 -5.734375 0.828125 -6.070312 0.828125 -6.46875 C 0.828125 -7.164062 1.109375 -7.710938 1.671875 -8.109375 C 2.242188 -8.515625 3.023438 -8.71875 4.015625 -8.71875 C 4.941406 -8.71875 5.84375 -8.53125 6.71875 -8.15625 L 6.265625 -7.109375 C 5.398438 -7.460938 4.617188 -7.640625 3.921875 -7.640625 C 3.304688 -7.640625 2.84375 -7.539062 2.53125 -7.34375 C 2.21875 -7.15625 2.0625 -6.890625 2.0625 -6.546875 C 2.0625 -6.316406 2.117188 -6.117188 2.234375 -5.953125 C 2.359375 -5.796875 2.550781 -5.644531 2.8125 -5.5 C 3.070312 -5.351562 3.570312 -5.144531 4.3125 -4.875 C 5.320312 -4.5 6.003906 -4.125 6.359375 -3.75 C 6.722656 -3.375 6.90625 -2.90625 6.90625 -2.34375 Z M 6.90625 -2.34375 "/></g></g></g></svg>