<svg xmlns="http://www.w3.org/2000/svg" xmlns:xlink="http://www.w3.org/1999/xlink" width="500" zoomAndPan="magnify" viewBox="0 0 375 374.999991" height="500" preserveAspectRatio="xMidYMid meet" version="1.0"><defs><clipPath id="e53a2f69fc"><path d="M 3.519531 3.167969 L 371.769531 3.167969 L 371.769531 371.417969 L 3.519531 371.417969 Z M 3.519531 3.167969 " clip-rule="nonzero"/></clipPath></defs><g clip-path="url(#e53a2f69fc)"><path fill="#7b2721" d="M 187.671875 3.167969 C 86.03125 3.167969 3.519531 85.679688 3.519531 187.320312 C 3.519531 288.960938 86.03125 371.476562 187.671875 371.476562 C 289.3125 371.476562 371.828125 288.960938 371.828125 187.320312 C 371.828125 85.679688 289.3125 3.167969 187.671875 3.167969 Z M 187.671875 47.617188 C 264.777344 47.617188 327.375 110.21875 327.375 187.320312 C 327.375 264.421875 264.777344 327.023438 187.671875 327.023438 C 110.570312 327.023438 47.96875 264.421875 47.96875 187.320312 C 47.96875 110.21875 110.570312 47.617188 187.671875 47.617188 Z M 187.671875 47.617188 " fill-opacity="1" fill-rule="evenodd"/></g><path fill="#7b2721" d="M 181.320312 101.703125 C 181.320312 145.625 181.320312 229.058594 181.703125 272.988281 C 181.722656 282.902344 186.421875 292.230469 194.390625 298.136719 C 202.371094 304.054688 212.683594 305.839844 222.183594 302.957031 C 271.984375 288.089844 308.324219 241.917969 308.324219 187.320312 C 308.324219 132.734375 271.988281 86.554688 222.320312 71.320312 C 222.3125 71.316406 222.304688 71.316406 222.300781 71.316406 C 212.679688 68.394531 202.238281 70.199219 194.160156 76.191406 C 186.085938 82.179688 181.320312 91.644531 181.320312 101.703125 Z M 181.320312 101.703125 " fill-opacity="1" fill-rule="evenodd"/></svg>