<svg xmlns="http://www.w3.org/2000/svg" xmlns:xlink="http://www.w3.org/1999/xlink" width="500" zoomAndPan="magnify" viewBox="0 0 375 374.999991" height="500" preserveAspectRatio="xMidYMid meet" version="1.0"><defs><g/><clipPath id="61e47962a7"><path d="M 5.277344 10.203125 L 369 10.203125 L 369 369.722656 L 5.277344 369.722656 Z M 5.277344 10.203125 " clip-rule="nonzero"/></clipPath><clipPath id="570dcf9e92"><path d="M 186.972656 10.203125 C 86.625 10.203125 5.277344 90.683594 5.277344 189.960938 C 5.277344 289.242188 86.625 369.722656 186.972656 369.722656 C 287.320312 369.722656 368.667969 289.242188 368.667969 189.960938 C 368.667969 90.683594 287.320312 10.203125 186.972656 10.203125 Z M 186.972656 10.203125 " clip-rule="nonzero"/></clipPath><clipPath id="c8e82b8792"><path d="M 70.535156 194 L 141 194 L 141 261 L 70.535156 261 Z M 70.535156 194 " clip-rule="nonzero"/></clipPath><clipPath id="9029d0f0ca"><path d="M 236 195 L 294.785156 195 L 294.785156 264 L 236 264 Z M 236 195 " clip-rule="nonzero"/></clipPath><clipPath id="44f0948bc5"><path d="M 178 82.636719 L 187 82.636719 L 187 102 L 178 102 Z M 178 82.636719 " clip-rule="nonzero"/></clipPath></defs><g clip-path="url(#61e47962a7)"><g clip-path="url(#570dcf9e92)"><path fill="#7b2721" d="M 5.277344 10.203125 L 369.011719 10.203125 L 369.011719 369.722656 L 5.277344 369.722656 Z M 5.277344 10.203125 " fill-opacity="1" fill-rule="nonzero"/></g></g><path fill="#fefefe" d="M 230.644531 205.203125 C 223.253906 205.203125 217.242188 199.1875 217.242188 191.796875 C 217.242188 188.210938 218.632812 184.84375 221.171875 182.320312 L 221.734375 181.757812 L 227.152344 187.175781 L 226.585938 187.738281 C 225.5 188.824219 224.898438 190.265625 224.898438 191.800781 C 224.898438 194.96875 227.476562 197.546875 230.644531 197.546875 C 232.179688 197.546875 233.621094 196.949219 234.703125 195.867188 L 246.199219 184.371094 C 247.28125 183.285156 247.882812 181.839844 247.882812 180.308594 C 247.882812 177.140625 245.304688 174.5625 242.140625 174.5625 C 241.003906 174.5625 239.910156 174.894531 238.976562 175.515625 L 234.734375 169.132812 C 236.929688 167.675781 239.492188 166.902344 242.140625 166.902344 C 249.527344 166.902344 255.542969 172.917969 255.542969 180.308594 C 255.542969 183.886719 254.148438 187.253906 251.613281 189.785156 L 240.125 201.273438 C 237.597656 203.808594 234.234375 205.203125 230.648438 205.203125 Z M 230.644531 205.203125 " fill-opacity="1" fill-rule="nonzero"/><path fill="#fefefe" d="M 170.308594 154.25 L 159.886719 143.824219 C 157.355469 141.300781 155.960938 137.933594 155.960938 134.347656 C 155.960938 126.960938 161.972656 120.945312 169.363281 120.945312 C 172.953125 120.945312 176.316406 122.339844 178.84375 124.878906 L 191.21875 137.253906 L 185.800781 142.671875 L 173.421875 130.289062 C 172.339844 129.207031 170.894531 128.605469 169.359375 128.605469 C 166.191406 128.605469 163.613281 131.183594 163.613281 134.347656 C 163.613281 135.886719 164.210938 137.324219 165.296875 138.410156 L 175.71875 148.835938 L 170.304688 154.253906 Z M 170.308594 154.25 " fill-opacity="1" fill-rule="nonzero"/><path fill="#fefefe" d="M 250.773438 305.988281 L 200.027344 239.671875 L 195.933594 239.671875 C 182.632812 239.671875 170.136719 234.496094 160.730469 225.09375 L 121.589844 185.957031 C 119.054688 183.429688 117.660156 180.0625 117.660156 176.480469 C 117.660156 169.089844 123.675781 163.074219 131.066406 163.074219 C 133.792969 163.074219 136.289062 163.832031 138.492188 165.320312 L 134.199219 171.664062 C 133.273438 171.039062 132.25 170.734375 131.066406 170.734375 C 127.898438 170.734375 125.320312 173.3125 125.320312 176.480469 C 125.320312 178.015625 125.917969 179.453125 127 180.539062 L 166.148438 219.679688 C 174.101562 227.636719 184.683594 232.015625 195.933594 232.015625 L 203.8125 232.015625 L 256.855469 301.339844 L 250.773438 305.992188 Z M 250.773438 305.988281 " fill-opacity="1" fill-rule="nonzero"/><g clip-path="url(#c8e82b8792)"><path fill="#fefefe" d="M 70.53125 254.414062 L 135.390625 194.144531 L 140.601562 199.753906 L 75.746094 260.023438 Z M 70.53125 254.414062 " fill-opacity="1" fill-rule="nonzero"/></g><path fill="#fefefe" d="M 118.972656 305.886719 L 112.632812 301.585938 L 157.234375 235.839844 L 161.207031 235.839844 C 166.820312 235.839844 174.558594 233.457031 179.203125 230.296875 L 183.511719 236.632812 C 177.6875 240.59375 168.363281 243.476562 161.296875 243.5 Z M 118.972656 305.886719 " fill-opacity="1" fill-rule="nonzero"/><g clip-path="url(#9029d0f0ca)"><path fill="#fefefe" d="M 289.796875 263.8125 L 242.589844 220.230469 C 238.652344 216.621094 236.390625 211.476562 236.390625 206.121094 L 236.390625 195.761719 L 244.050781 195.761719 L 244.050781 206.121094 C 244.050781 209.335938 245.410156 212.421875 247.773438 214.59375 L 294.996094 258.191406 Z M 289.796875 263.8125 " fill-opacity="1" fill-rule="nonzero"/></g><path fill="#fefefe" d="M 258.613281 138.128906 L 279.726562 127.597656 L 283.144531 134.449219 L 262.027344 144.980469 Z M 258.613281 138.128906 " fill-opacity="1" fill-rule="nonzero"/><path fill="#fefefe" d="M 227.519531 106.320312 L 238.75 89.296875 L 245.148438 93.515625 L 233.917969 110.539062 Z M 227.519531 106.320312 " fill-opacity="1" fill-rule="nonzero"/><path fill="#fefefe" d="M 82.398438 134.433594 L 85.816406 127.582031 L 106.933594 138.113281 L 103.515625 144.964844 Z M 82.398438 134.433594 " fill-opacity="1" fill-rule="nonzero"/><path fill="#fefefe" d="M 120.386719 93.515625 L 126.785156 89.296875 L 138.019531 106.316406 L 131.625 110.539062 Z M 120.386719 93.515625 " fill-opacity="1" fill-rule="nonzero"/><g clip-path="url(#44f0948bc5)"><path fill="#fefefe" d="M 178.941406 82.644531 L 186.601562 82.644531 L 186.601562 101.796875 L 178.941406 101.796875 Z M 178.941406 82.644531 " fill-opacity="1" fill-rule="nonzero"/></g><path fill="#fefefe" d="M 147.199219 184.757812 L 133.078125 170.632812 C 130.542969 168.105469 129.148438 164.742188 129.148438 161.15625 C 129.148438 153.765625 135.164062 147.753906 142.550781 147.753906 C 145.199219 147.753906 147.761719 148.523438 149.957031 149.984375 L 145.714844 156.363281 C 144.777344 155.742188 143.6875 155.414062 142.550781 155.414062 C 139.386719 155.414062 136.808594 157.988281 136.808594 161.15625 C 136.808594 162.695312 137.40625 164.132812 138.488281 165.214844 L 152.617188 179.34375 L 147.199219 184.761719 Z M 147.199219 184.757812 " fill-opacity="1" fill-rule="nonzero"/><path fill="#fefefe" d="M 158.777344 169.523438 L 144.566406 155.316406 C 142.035156 152.792969 140.640625 149.425781 140.640625 145.839844 C 140.640625 138.453125 146.65625 132.4375 154.042969 132.4375 C 157.8125 132.4375 161.253906 133.933594 163.996094 136.761719 L 158.5 142.097656 C 157.195312 140.75 155.742188 140.097656 154.046875 140.097656 C 150.882812 140.097656 148.304688 142.675781 148.304688 145.839844 C 148.304688 147.378906 148.902344 148.816406 149.984375 149.898438 L 164.195312 164.113281 L 158.78125 169.527344 Z M 158.777344 169.523438 " fill-opacity="1" fill-rule="nonzero"/><path fill="#fefefe" d="M 192.34375 163.070312 C 184.957031 163.070312 178.941406 157.058594 178.941406 149.667969 C 178.941406 146.089844 180.335938 142.722656 182.871094 140.191406 L 198.1875 124.875 C 200.714844 122.339844 204.078125 120.945312 207.664062 120.945312 C 215.054688 120.945312 221.066406 126.960938 221.066406 134.347656 C 221.066406 137.9375 219.675781 141.304688 217.136719 143.828125 L 201.820312 159.144531 C 199.289062 161.679688 195.921875 163.070312 192.34375 163.070312 Z M 207.664062 128.601562 C 206.128906 128.601562 204.691406 129.199219 203.605469 130.28125 L 188.28125 145.605469 C 187.199219 146.6875 186.597656 148.136719 186.597656 149.667969 C 186.597656 152.835938 189.175781 155.414062 192.339844 155.414062 C 193.875 155.414062 195.316406 154.816406 196.40625 153.726562 L 211.722656 138.410156 C 212.808594 137.324219 213.410156 135.882812 213.410156 134.34375 C 213.410156 131.179688 210.832031 128.601562 207.664062 128.601562 Z M 207.664062 128.601562 " fill-opacity="1" fill-rule="nonzero"/><path fill="#fefefe" d="M 207.664062 174.558594 C 200.277344 174.558594 194.261719 168.546875 194.261719 161.15625 C 194.261719 158.503906 195.035156 155.9375 196.5 153.730469 L 202.882812 157.972656 C 202.25 158.921875 201.921875 160.019531 201.921875 161.15625 C 201.921875 164.324219 204.5 166.898438 207.664062 166.898438 C 209.203125 166.898438 210.640625 166.300781 211.722656 165.21875 L 227.046875 149.894531 C 228.128906 148.8125 228.730469 147.367188 228.730469 145.832031 C 228.730469 142.667969 226.15625 140.089844 222.988281 140.089844 C 221.453125 140.089844 220.011719 140.6875 218.925781 141.773438 L 218.34375 142.355469 L 212.925781 136.9375 L 213.507812 136.355469 C 216.042969 133.824219 219.40625 132.429688 222.984375 132.429688 C 230.371094 132.429688 236.386719 138.445312 236.386719 145.832031 C 236.386719 149.414062 234.992188 152.78125 232.460938 155.308594 L 217.140625 170.628906 C 214.617188 173.160156 211.25 174.554688 207.664062 174.554688 Z M 207.664062 174.558594 " fill-opacity="1" fill-rule="nonzero"/><path fill="#fefefe" d="M 219.15625 189.882812 C 211.769531 189.882812 205.753906 183.867188 205.753906 176.480469 C 205.753906 172.890625 207.148438 169.523438 209.683594 167 L 210.246094 166.4375 L 215.664062 171.855469 L 215.097656 172.421875 C 214.015625 173.503906 213.414062 174.945312 213.414062 176.484375 C 213.414062 179.648438 215.988281 182.226562 219.15625 182.226562 C 220.695312 182.226562 222.132812 181.628906 223.214844 180.546875 L 238.539062 165.222656 C 239.621094 164.140625 240.222656 162.695312 240.222656 161.160156 C 240.222656 157.992188 237.644531 155.417969 234.480469 155.417969 C 233.34375 155.417969 232.246094 155.746094 231.304688 156.367188 L 227.078125 149.980469 C 229.277344 148.527344 231.839844 147.753906 234.480469 147.753906 C 241.867188 147.753906 247.882812 153.765625 247.882812 161.15625 C 247.882812 164.738281 246.488281 168.101562 243.957031 170.632812 L 228.636719 185.953125 C 226.109375 188.484375 222.746094 189.878906 219.160156 189.878906 Z M 219.15625 189.882812 " fill-opacity="1" fill-rule="nonzero"/><g fill="#7b2721" fill-opacity="1"><g transform="translate(127.307809, 52.399999)"><g><path d="M 5.359375 -8.703125 C 6.484375 -8.703125 7.359375 -8.316406 7.984375 -7.546875 C 8.609375 -6.785156 8.921875 -5.703125 8.921875 -4.296875 C 8.921875 -2.890625 8.601562 -1.796875 7.96875 -1.015625 C 7.34375 -0.234375 6.472656 0.15625 5.359375 0.15625 C 4.804688 0.15625 4.296875 0.0507812 3.828125 -0.15625 C 3.367188 -0.363281 2.984375 -0.679688 2.671875 -1.109375 L 2.578125 -1.109375 L 2.3125 0 L 1.375 0 L 1.375 -12.15625 L 2.671875 -12.15625 L 2.671875 -9.203125 C 2.671875 -8.546875 2.648438 -7.953125 2.609375 -7.421875 L 2.671875 -7.421875 C 3.273438 -8.273438 4.171875 -8.703125 5.359375 -8.703125 Z M 5.171875 -7.625 C 4.285156 -7.625 3.644531 -7.367188 3.25 -6.859375 C 2.863281 -6.347656 2.671875 -5.492188 2.671875 -4.296875 C 2.671875 -3.085938 2.867188 -2.222656 3.265625 -1.703125 C 3.671875 -1.191406 4.316406 -0.9375 5.203125 -0.9375 C 6.003906 -0.9375 6.597656 -1.222656 6.984375 -1.796875 C 7.378906 -2.378906 7.578125 -3.21875 7.578125 -4.3125 C 7.578125 -5.425781 7.378906 -6.253906 6.984375 -6.796875 C 6.597656 -7.347656 5.992188 -7.625 5.171875 -7.625 Z M 5.171875 -7.625 "/></g></g></g><g fill="#7b2721" fill-opacity="1"><g transform="translate(137.110108, 52.399999)"><g><path d="M 2.59375 -8.5625 L 2.59375 -3.015625 C 2.59375 -2.316406 2.75 -1.796875 3.0625 -1.453125 C 3.382812 -1.109375 3.882812 -0.9375 4.5625 -0.9375 C 5.457031 -0.9375 6.113281 -1.179688 6.53125 -1.671875 C 6.945312 -2.160156 7.15625 -2.957031 7.15625 -4.0625 L 7.15625 -8.5625 L 8.453125 -8.5625 L 8.453125 0 L 7.375 0 L 7.1875 -1.15625 L 7.125 -1.15625 C 6.851562 -0.726562 6.484375 -0.398438 6.015625 -0.171875 C 5.546875 0.046875 5.007812 0.15625 4.40625 0.15625 C 3.363281 0.15625 2.582031 -0.0859375 2.0625 -0.578125 C 1.539062 -1.078125 1.28125 -1.875 1.28125 -2.96875 L 1.28125 -8.5625 Z M 2.59375 -8.5625 "/></g></g></g><g fill="#7b2721" fill-opacity="1"><g transform="translate(146.928028, 52.399999)"><g><path d="M 4.140625 -0.921875 C 4.367188 -0.921875 4.585938 -0.9375 4.796875 -0.96875 C 5.015625 -1 5.1875 -1.035156 5.3125 -1.078125 L 5.3125 -0.078125 C 5.175781 -0.00390625 4.96875 0.0507812 4.6875 0.09375 C 4.414062 0.132812 4.171875 0.15625 3.953125 0.15625 C 2.296875 0.15625 1.46875 -0.71875 1.46875 -2.46875 L 1.46875 -7.5625 L 0.25 -7.5625 L 0.25 -8.1875 L 1.46875 -8.71875 L 2.015625 -10.546875 L 2.765625 -10.546875 L 2.765625 -8.5625 L 5.25 -8.5625 L 5.25 -7.5625 L 2.765625 -7.5625 L 2.765625 -2.515625 C 2.765625 -2.003906 2.882812 -1.609375 3.125 -1.328125 C 3.375 -1.054688 3.710938 -0.921875 4.140625 -0.921875 Z M 4.140625 -0.921875 "/></g></g></g><g fill="#7b2721" fill-opacity="1"><g transform="translate(152.575092, 52.399999)"><g><path d="M 4.140625 -0.921875 C 4.367188 -0.921875 4.585938 -0.9375 4.796875 -0.96875 C 5.015625 -1 5.1875 -1.035156 5.3125 -1.078125 L 5.3125 -0.078125 C 5.175781 -0.00390625 4.96875 0.0507812 4.6875 0.09375 C 4.414062 0.132812 4.171875 0.15625 3.953125 0.15625 C 2.296875 0.15625 1.46875 -0.71875 1.46875 -2.46875 L 1.46875 -7.5625 L 0.25 -7.5625 L 0.25 -8.1875 L 1.46875 -8.71875 L 2.015625 -10.546875 L 2.765625 -10.546875 L 2.765625 -8.5625 L 5.25 -8.5625 L 5.25 -7.5625 L 2.765625 -7.5625 L 2.765625 -2.515625 C 2.765625 -2.003906 2.882812 -1.609375 3.125 -1.328125 C 3.375 -1.054688 3.710938 -0.921875 4.140625 -0.921875 Z M 4.140625 -0.921875 "/></g></g></g><g fill="#7b2721" fill-opacity="1"><g transform="translate(158.222155, 52.399999)"><g><path d="M 8.765625 -4.296875 C 8.765625 -2.898438 8.410156 -1.804688 7.703125 -1.015625 C 7.003906 -0.234375 6.035156 0.15625 4.796875 0.15625 C 4.035156 0.15625 3.359375 -0.0195312 2.765625 -0.375 C 2.171875 -0.738281 1.710938 -1.253906 1.390625 -1.921875 C 1.066406 -2.597656 0.90625 -3.390625 0.90625 -4.296875 C 0.90625 -5.691406 1.253906 -6.773438 1.953125 -7.546875 C 2.648438 -8.328125 3.617188 -8.71875 4.859375 -8.71875 C 6.054688 -8.71875 7.003906 -8.316406 7.703125 -7.515625 C 8.410156 -6.722656 8.765625 -5.648438 8.765625 -4.296875 Z M 2.25 -4.296875 C 2.25 -3.203125 2.46875 -2.367188 2.90625 -1.796875 C 3.34375 -1.222656 3.984375 -0.9375 4.828125 -0.9375 C 5.679688 -0.9375 6.328125 -1.21875 6.765625 -1.78125 C 7.203125 -2.351562 7.421875 -3.191406 7.421875 -4.296875 C 7.421875 -5.378906 7.203125 -6.203125 6.765625 -6.765625 C 6.328125 -7.335938 5.675781 -7.625 4.8125 -7.625 C 3.96875 -7.625 3.328125 -7.34375 2.890625 -6.78125 C 2.460938 -6.226562 2.25 -5.398438 2.25 -4.296875 Z M 2.25 -4.296875 "/></g></g></g><g fill="#7b2721" fill-opacity="1"><g transform="translate(167.883864, 52.399999)"><g><path d="M 7.234375 0 L 7.234375 -5.546875 C 7.234375 -6.242188 7.070312 -6.765625 6.75 -7.109375 C 6.4375 -7.453125 5.941406 -7.625 5.265625 -7.625 C 4.367188 -7.625 3.710938 -7.378906 3.296875 -6.890625 C 2.878906 -6.410156 2.671875 -5.613281 2.671875 -4.5 L 2.671875 0 L 1.375 0 L 1.375 -8.5625 L 2.4375 -8.5625 L 2.640625 -7.390625 L 2.703125 -7.390625 C 2.972656 -7.816406 3.347656 -8.144531 3.828125 -8.375 C 4.304688 -8.601562 4.835938 -8.71875 5.421875 -8.71875 C 6.453125 -8.71875 7.226562 -8.46875 7.75 -7.96875 C 8.269531 -7.476562 8.53125 -6.6875 8.53125 -5.59375 L 8.53125 0 Z M 7.234375 0 "/></g></g></g><g fill="#7b2721" fill-opacity="1"><g transform="translate(177.701784, 52.399999)"><g><path d="M 10.5 0 L 8.984375 0 L 2.734375 -9.59375 L 2.671875 -9.59375 C 2.753906 -8.46875 2.796875 -7.4375 2.796875 -6.5 L 2.796875 0 L 1.578125 0 L 1.578125 -11.421875 L 3.078125 -11.421875 L 9.296875 -1.875 L 9.359375 -1.875 C 9.347656 -2.019531 9.320312 -2.472656 9.28125 -3.234375 C 9.25 -3.992188 9.238281 -4.539062 9.25 -4.875 L 9.25 -11.421875 L 10.5 -11.421875 Z M 10.5 0 "/></g></g></g><g fill="#7b2721" fill-opacity="1"><g transform="translate(189.761338, 52.399999)"><g><path d="M 8.765625 -4.296875 C 8.765625 -2.898438 8.410156 -1.804688 7.703125 -1.015625 C 7.003906 -0.234375 6.035156 0.15625 4.796875 0.15625 C 4.035156 0.15625 3.359375 -0.0195312 2.765625 -0.375 C 2.171875 -0.738281 1.710938 -1.253906 1.390625 -1.921875 C 1.066406 -2.597656 0.90625 -3.390625 0.90625 -4.296875 C 0.90625 -5.691406 1.253906 -6.773438 1.953125 -7.546875 C 2.648438 -8.328125 3.617188 -8.71875 4.859375 -8.71875 C 6.054688 -8.71875 7.003906 -8.316406 7.703125 -7.515625 C 8.410156 -6.722656 8.765625 -5.648438 8.765625 -4.296875 Z M 2.25 -4.296875 C 2.25 -3.203125 2.46875 -2.367188 2.90625 -1.796875 C 3.34375 -1.222656 3.984375 -0.9375 4.828125 -0.9375 C 5.679688 -0.9375 6.328125 -1.21875 6.765625 -1.78125 C 7.203125 -2.351562 7.421875 -3.191406 7.421875 -4.296875 C 7.421875 -5.378906 7.203125 -6.203125 6.765625 -6.765625 C 6.328125 -7.335938 5.675781 -7.625 4.8125 -7.625 C 3.96875 -7.625 3.328125 -7.34375 2.890625 -6.78125 C 2.460938 -6.226562 2.25 -5.398438 2.25 -4.296875 Z M 2.25 -4.296875 "/></g></g></g><g fill="#7b2721" fill-opacity="1"><g transform="translate(199.423046, 52.399999)"><g><path d="M 4.140625 -0.921875 C 4.367188 -0.921875 4.585938 -0.9375 4.796875 -0.96875 C 5.015625 -1 5.1875 -1.035156 5.3125 -1.078125 L 5.3125 -0.078125 C 5.175781 -0.00390625 4.96875 0.0507812 4.6875 0.09375 C 4.414062 0.132812 4.171875 0.15625 3.953125 0.15625 C 2.296875 0.15625 1.46875 -0.71875 1.46875 -2.46875 L 1.46875 -7.5625 L 0.25 -7.5625 L 0.25 -8.1875 L 1.46875 -8.71875 L 2.015625 -10.546875 L 2.765625 -10.546875 L 2.765625 -8.5625 L 5.25 -8.5625 L 5.25 -7.5625 L 2.765625 -7.5625 L 2.765625 -2.515625 C 2.765625 -2.003906 2.882812 -1.609375 3.125 -1.328125 C 3.375 -1.054688 3.710938 -0.921875 4.140625 -0.921875 Z M 4.140625 -0.921875 "/></g></g></g><g fill="#7b2721" fill-opacity="1"><g transform="translate(205.07011, 52.399999)"><g><path d="M 8.75 0 L 7.328125 -3.640625 L 2.75 -3.640625 L 1.34375 0 L 0 0 L 4.515625 -11.46875 L 5.640625 -11.46875 L 10.125 0 Z M 6.921875 -4.828125 L 5.59375 -8.375 C 5.414062 -8.820312 5.238281 -9.367188 5.0625 -10.015625 C 4.945312 -9.515625 4.78125 -8.96875 4.5625 -8.375 L 3.21875 -4.828125 Z M 6.921875 -4.828125 "/></g></g></g><g fill="#7b2721" fill-opacity="1"><g transform="translate(215.192637, 52.399999)"><g><path d="M 2.671875 0 L 1.375 0 L 1.375 -12.15625 L 2.671875 -12.15625 Z M 2.671875 0 "/></g></g></g><g fill="#7b2721" fill-opacity="1"><g transform="translate(219.238524, 52.399999)"><g><path d="M 8.765625 -4.296875 C 8.765625 -2.898438 8.410156 -1.804688 7.703125 -1.015625 C 7.003906 -0.234375 6.035156 0.15625 4.796875 0.15625 C 4.035156 0.15625 3.359375 -0.0195312 2.765625 -0.375 C 2.171875 -0.738281 1.710938 -1.253906 1.390625 -1.921875 C 1.066406 -2.597656 0.90625 -3.390625 0.90625 -4.296875 C 0.90625 -5.691406 1.253906 -6.773438 1.953125 -7.546875 C 2.648438 -8.328125 3.617188 -8.71875 4.859375 -8.71875 C 6.054688 -8.71875 7.003906 -8.316406 7.703125 -7.515625 C 8.410156 -6.722656 8.765625 -5.648438 8.765625 -4.296875 Z M 2.25 -4.296875 C 2.25 -3.203125 2.46875 -2.367188 2.90625 -1.796875 C 3.34375 -1.222656 3.984375 -0.9375 4.828125 -0.9375 C 5.679688 -0.9375 6.328125 -1.21875 6.765625 -1.78125 C 7.203125 -2.351562 7.421875 -3.191406 7.421875 -4.296875 C 7.421875 -5.378906 7.203125 -6.203125 6.765625 -6.765625 C 6.328125 -7.335938 5.675781 -7.625 4.8125 -7.625 C 3.96875 -7.625 3.328125 -7.34375 2.890625 -6.78125 C 2.460938 -6.226562 2.25 -5.398438 2.25 -4.296875 Z M 2.25 -4.296875 "/></g></g></g><g fill="#7b2721" fill-opacity="1"><g transform="translate(228.900232, 52.399999)"><g><path d="M 7.234375 0 L 7.234375 -5.546875 C 7.234375 -6.242188 7.070312 -6.765625 6.75 -7.109375 C 6.4375 -7.453125 5.941406 -7.625 5.265625 -7.625 C 4.367188 -7.625 3.710938 -7.378906 3.296875 -6.890625 C 2.878906 -6.410156 2.671875 -5.613281 2.671875 -4.5 L 2.671875 0 L 1.375 0 L 1.375 -8.5625 L 2.4375 -8.5625 L 2.640625 -7.390625 L 2.703125 -7.390625 C 2.972656 -7.816406 3.347656 -8.144531 3.828125 -8.375 C 4.304688 -8.601562 4.835938 -8.71875 5.421875 -8.71875 C 6.453125 -8.71875 7.226562 -8.46875 7.75 -7.96875 C 8.269531 -7.476562 8.53125 -6.6875 8.53125 -5.59375 L 8.53125 0 Z M 7.234375 0 "/></g></g></g><g fill="#7b2721" fill-opacity="1"><g transform="translate(238.718152, 52.399999)"><g><path d="M 5 0.15625 C 3.726562 0.15625 2.726562 -0.226562 2 -1 C 1.269531 -1.769531 0.90625 -2.84375 0.90625 -4.21875 C 0.90625 -5.59375 1.242188 -6.6875 1.921875 -7.5 C 2.597656 -8.3125 3.507812 -8.71875 4.65625 -8.71875 C 5.726562 -8.71875 6.578125 -8.363281 7.203125 -7.65625 C 7.828125 -6.957031 8.140625 -6.03125 8.140625 -4.875 L 8.140625 -4.046875 L 2.25 -4.046875 C 2.269531 -3.046875 2.519531 -2.285156 3 -1.765625 C 3.488281 -1.242188 4.171875 -0.984375 5.046875 -0.984375 C 5.960938 -0.984375 6.875 -1.175781 7.78125 -1.5625 L 7.78125 -0.40625 C 7.320312 -0.207031 6.882812 -0.0664062 6.46875 0.015625 C 6.0625 0.109375 5.570312 0.15625 5 0.15625 Z M 4.640625 -7.640625 C 3.953125 -7.640625 3.40625 -7.414062 3 -6.96875 C 2.59375 -6.519531 2.351562 -5.898438 2.28125 -5.109375 L 6.75 -5.109375 C 6.75 -5.921875 6.566406 -6.546875 6.203125 -6.984375 C 5.835938 -7.421875 5.316406 -7.640625 4.640625 -7.640625 Z M 4.640625 -7.640625 "/></g></g></g></svg>